<svg width="90" height="90" viewBox="0 0 90 90" fill="none" xmlns="http://www.w3.org/2000/svg">
<path d="M90.0006 24.576V87.3633C90.0006 88.8187 88.8193 90 87.3639 90H13.1543C11.6988 90 10.5176 88.8187 10.5176 87.3633V2.63672C10.5176 1.18125 11.6988 0 13.1543 0H65.1082C65.8008 0 66.4652 0.272461 66.9592 0.759375L89.2148 22.6969C89.7176 23.1926 90.0006 23.8693 90.0006 24.576Z" fill="#F0E9E9"/>
<path d="M89.2136 22.6969L66.9579 0.759375C66.464 0.272461 65.7995 0 65.107 0H50.2578V90H87.3626C88.8181 90 89.9994 88.8187 89.9994 87.3633V24.576C89.9994 23.8693 89.7164 23.1926 89.2136 22.6969Z" fill="#E1DED9"/>
<path d="M89.9998 24.576V27.2127H70.3791C66.018 27.2127 62.4707 23.6637 62.4707 19.3025V0H65.1074C65.8 0 66.4645 0.272461 66.9584 0.759375L89.214 22.6969C89.7168 23.1926 89.9998 23.8693 89.9998 24.576Z" fill="#FF5E94"/>
<path d="M55.4801 36.3318V64.0156C55.4801 71.6832 49.2416 77.9217 41.574 77.9217H13.9061C6.23848 77.9217 0 71.6832 0 64.0156V36.3318C0 28.6643 6.23848 22.4258 13.9061 22.4258H41.574C49.2416 22.4258 55.4801 28.6643 55.4801 36.3318Z" fill="#3BA9FF"/>
<path d="M41.5742 22.4258H27.7402V77.9217H41.5742C49.2418 77.9217 55.4803 71.6832 55.4803 64.0156V36.3318C55.4803 28.6643 49.2418 22.4258 41.5742 22.4258Z" fill="#0081FF"/>
<path d="M31.3019 50.1727L38.331 42.4283C39.3096 41.35 39.2289 39.6824 38.1507 38.7038C37.0721 37.7251 35.405 37.8059 34.4262 38.8842L27.7411 46.2496L21.056 38.8842C20.0772 37.8059 18.4096 37.7251 17.3315 38.7038C16.2531 39.6826 16.1724 41.35 17.1512 42.4283L24.1803 50.1727L17.1512 57.9171C16.1726 58.9953 16.2533 60.6629 17.3315 61.6415C17.8365 62.0998 18.4706 62.3258 19.1027 62.3258C19.8204 62.3258 20.5355 62.0346 21.056 61.4612L27.7411 54.0958L34.4262 61.4612C34.9467 62.0346 35.6616 62.3258 36.3795 62.3258C37.0116 62.3258 37.6458 62.0998 38.1507 61.6415C39.2291 60.6628 39.3098 58.9953 38.331 57.9171L31.3019 50.1727Z" fill="#F4F1F1"/>
<path d="M31.3014 50.1727L38.3305 42.4283C39.3091 41.35 39.2284 39.6824 38.1502 38.7038C37.0716 37.7251 35.4045 37.8059 34.4257 38.8842L27.7406 46.2496L27.7402 46.2493V54.0963L27.7406 54.096L34.4257 61.4614C34.9462 62.0348 35.6611 62.326 36.379 62.326C37.0111 62.326 37.6453 62.1 38.1502 61.6417C39.2286 60.663 39.3093 58.9955 38.3305 57.9173L31.3014 50.1727Z" fill="#E7DFDD"/>
</svg>
