<svg width="105" height="105" viewBox="0 0 105 105" fill="none" xmlns="http://www.w3.org/2000/svg">
<path d="M85.1397 17.5871C85.0847 17.605 65.8763 23.2649 65.8218 23.2836C63.7626 23.9999 62.3789 25.9461 62.3789 28.1263V36.7853C62.3789 38.4844 63.7562 39.8617 65.4553 39.8617H88.8358C90.5349 39.8617 91.9122 38.4844 91.9122 36.7853V22.4432C91.9122 18.9411 88.4634 16.4606 85.1397 17.5871Z" fill="#0081FF"/>
<path d="M32.8457 33.707V91.667C32.8457 99.0178 38.826 104.998 46.1768 104.998H78.5816C85.9324 104.998 91.9127 99.0178 91.9127 91.667C91.9127 88.4403 91.9127 35.3257 91.9127 33.707H32.8457Z" fill="#FA6F61"/>
<path d="M62.3789 33.707V104.998H78.5813C85.9319 104.998 91.9124 99.0176 91.9124 91.667V33.707H62.3789Z" fill="#E74C3C"/>
<path d="M48.6916 47.8594C46.9925 47.8594 45.6152 49.2367 45.6152 50.9358V87.7711C45.6152 89.4701 46.9925 90.8474 48.6916 90.8474C50.3907 90.8474 51.768 89.4701 51.768 87.7711V50.9358C51.768 49.2367 50.3905 47.8594 48.6916 47.8594Z" fill="#EFEFEF"/>
<path d="M62.3791 47.8594C60.68 47.8594 59.3027 49.2367 59.3027 50.9358V87.7711C59.3027 89.4701 60.68 90.8474 62.3791 90.8474C64.0782 90.8474 65.4555 89.4701 65.4555 87.7711V50.9358C65.4555 49.2367 64.0782 47.8594 62.3791 47.8594Z" fill="#EFEFEF"/>
<path d="M65.4553 50.9358V87.7704C65.4553 89.4687 64.0772 90.8468 62.3789 90.8468V47.8594C64.0772 47.8594 65.4553 49.2354 65.4553 50.9358Z" fill="white"/>
<path d="M76.0666 47.8594C74.3675 47.8594 72.9902 49.2367 72.9902 50.9358V87.7711C72.9902 89.4701 74.3675 90.8474 76.0666 90.8474C77.7657 90.8474 79.143 89.4701 79.143 87.7711V50.9358C79.143 49.2367 77.7657 47.8594 76.0666 47.8594Z" fill="white"/>
<path d="M39.4095 3.70689C39.4095 3.70689 39.4095 3.70689 39.4074 3.70689C36.2623 1.7406 32.0213 2.10871 29.2643 4.86558V4.86763L23.6082 10.5216L17.9521 16.1777C14.7529 19.3769 14.7529 24.5818 17.9521 27.779L20.854 30.6808L25.0191 30.2501L25.2037 26.3291L22.3039 23.4293C21.5041 22.6294 21.5041 21.3272 22.3039 20.5294L27.96 14.8734L33.614 9.21734H33.616C34.3725 8.4608 35.6719 8.37323 36.5138 9.21529L39.4156 12.1171L43.2198 11.4855L43.7674 7.76743C40.731 4.73105 40.402 4.31843 39.4095 3.70689Z" fill="#5A5A5A"/>
<path d="M39.4107 3.70704C39.4107 3.70704 39.4107 3.70704 39.4086 3.70704C36.2715 1.74567 32.0323 2.10107 29.2654 4.86778L23.6094 10.5218L27.9611 14.8735L33.6172 9.21748C34.3731 8.46157 35.6715 8.37174 36.515 9.21543L39.4168 12.1173L43.7686 7.76758C40.6327 4.63173 40.4541 4.36862 39.4107 3.70704Z" fill="#444444"/>
<path d="M65.0957 7.60989L59.5849 2.09903C56.7862 -0.699675 52.2322 -0.699675 49.4333 2.09903L15.1869 36.3452C12.3882 39.1439 12.3882 43.6979 15.1869 46.4968L20.6978 52.0077C21.8989 53.209 23.847 53.2092 25.0483 52.0077L65.0957 11.9604C66.2971 10.7591 66.2971 8.81123 65.0957 7.60989Z" fill="#FF936B"/>
<path d="M59.5849 2.09918L65.0958 7.61004C66.2965 8.81077 66.2979 10.7584 65.0958 11.9608L45.0726 31.984L32.3105 19.222L49.4333 2.09918C52.2322 -0.699727 56.786 -0.699727 59.5849 2.09918Z" fill="#FF6B6B"/>
</svg>
