<svg width="216" height="140" viewBox="0 0 216 140" fill="none" xmlns="http://www.w3.org/2000/svg">
<rect width="216" height="140" rx="5" fill="white"/>
<path d="M198 94.4008C198 94.4008 192.208 76.456 168.708 74.7639L133.286 73.8126C133.286 73.8126 117.938 63.8271 103.424 62.716C103.424 62.716 85.8406 59.1067 55.4229 68.4023C55.4229 68.4023 110.261 57.2258 128.962 78.2135C128.962 78.2062 186.524 71.5686 198 94.4008Z" fill="#9DA2B8"/>
<path d="M140.539 71.0311C140.539 71.0311 114.03 51.6775 78.0238 55.4611C78.0238 55.4611 60.0245 56.7465 41.3239 64.0958C41.3239 64.0958 26.3926 72.1422 19 68.257C19 68.257 19.2776 73.2534 29.7456 71.0311C29.7456 71.0311 62.5374 61.1836 75.9346 60.0725C75.9346 60.0725 110.933 54.96 130.327 70.944L140.539 71.0311Z" fill="#1763EA"/>
<path d="M48.8037 45.8752C48.8037 45.8752 57.1752 23.4133 84.2034 22.8105C84.2034 22.8105 100.106 22.8105 105.578 33.1083C105.578 33.1083 98.5722 23.5005 83.9331 24.7859C83.9331 24.7859 61.1417 24.6406 51.6307 46.2528L48.8037 45.8752Z" fill="#1763EA"/>
<path d="M68.2275 24.2411C68.2275 24.2411 91.4791 11.2709 111.473 30.6972C111.473 30.6972 121.32 39.0486 117.901 58.7799L109.836 57.0806C109.836 57.0806 115.9 44.2484 107.513 31.7356C107.521 31.7429 97.44 14.9964 68.2275 24.2411Z" fill="#9DA2B8"/>
<path d="M58.3154 40.3486C58.3154 40.3486 54.8163 44.9165 54.2246 46.6086L61.3104 48.2499L57.8771 46.6086L61.2519 42.5345L58.3154 40.3486Z" fill="#1763EA"/>
<path d="M69.2217 31.5758C69.2217 31.5758 77.2571 28.0101 78.7181 28.3296L78.2287 35.8459C78.2287 35.8459 75.0948 35.1488 71.6396 36.6738L69.2217 31.5758Z" fill="#1763EA"/>
<path d="M80.5146 27.7196L81.1429 35.5482L84.2767 35.9694L89.7262 27.5453C89.7335 27.5453 85.3432 26.4342 80.5146 27.7196Z" fill="#1763EA"/>
<path d="M92.7437 27.8867C92.7437 27.8867 88.4265 36.6885 87.4111 37.0734C87.4111 37.0734 91.217 39.0632 91.1001 39.8838L99.5666 30.5374C99.5739 30.5447 95.7534 28.2353 92.7437 27.8867Z" fill="#1763EA"/>
<path d="M92.3564 40.9877L101.144 31.3508C101.144 31.3508 106.053 35.8025 106.068 37.4293L94.3215 43.544L92.3564 40.9877Z" fill="#1763EA"/>
<path d="M95.0001 45.3013L107.082 39.0486C107.082 39.0486 110.012 45.3885 107.455 54.4734L85.5986 51.525L95.1973 50.334C95.19 50.334 95.6721 48.8452 95.0001 45.3013Z" fill="#1763EA"/>
<path d="M73.6699 49.92L89.1199 32.0188L75.4742 52.0624L73.6699 49.92Z" fill="#9DA2B8"/>
<path d="M76.5699 50.5881C77.7752 50.5881 78.7541 49.615 78.7541 48.4167C78.7541 47.2185 77.7752 46.2454 76.5699 46.2454C75.3646 46.2454 74.3857 47.2185 74.3857 48.4167C74.3857 49.615 75.3573 50.5881 76.5699 50.5881Z" fill="#9DA2B8"/>
<path d="M59.6816 39.1067L62.6913 41.6558C62.6913 41.6558 67.6002 37.7414 69.7478 37.3638L67.1181 32.9121C67.1254 32.9121 61.5152 36.0639 59.6816 39.1067Z" fill="#1763EA"/>
<path d="M38.8914 102.181C38.9936 102.152 39.0886 102.123 39.1835 102.101C39.2858 102.072 39.3808 102.058 39.4684 102.065C39.5561 102.065 39.6365 102.087 39.7095 102.123C39.7826 102.167 39.8483 102.232 39.9067 102.326C39.9287 102.472 39.936 102.588 39.9213 102.682C39.914 102.769 39.8848 102.857 39.841 102.929C39.8045 103.002 39.746 103.074 39.673 103.14C39.5999 103.205 39.5196 103.278 39.4319 103.372C39.1835 103.619 38.884 103.83 38.5407 104.004C38.2047 104.171 37.8467 104.309 37.4742 104.418C37.1016 104.52 36.7364 104.6 36.3712 104.643C36.0059 104.694 35.6772 104.716 35.3923 104.716C34.5011 104.716 33.7122 104.607 33.0255 104.382C32.3461 104.157 31.7764 103.83 31.3161 103.409C30.8559 102.98 30.5126 102.457 30.2715 101.847C30.0378 101.23 29.9209 100.533 29.9209 99.7484C29.9209 98.7172 30.067 97.8239 30.3665 97.0832C30.6587 96.3352 31.0678 95.7179 31.5864 95.2459C32.1124 94.7666 32.7333 94.4107 33.4419 94.1783C34.1578 93.946 34.9321 93.837 35.7648 93.837C36.3565 93.837 36.9117 93.8806 37.4304 93.975C37.9417 94.0694 38.4238 94.2219 38.8621 94.4398C38.9936 94.4979 39.1251 94.5923 39.2639 94.7375C39.41 94.8828 39.5415 95.0498 39.6584 95.2531C39.7826 95.4492 39.8848 95.6671 39.9725 95.8995C40.0601 96.1319 40.1186 96.3715 40.1478 96.6039C40.1697 96.8436 40.1551 97.0759 40.104 97.2938C40.0455 97.5117 39.936 97.7077 39.7753 97.882L38.117 97.3446C38.0659 97.1413 38.0148 96.9597 37.949 96.7927C37.8906 96.6329 37.8248 96.4804 37.7445 96.357C37.6714 96.2263 37.5765 96.1101 37.4742 96.0084C37.3719 95.9067 37.2477 95.8051 37.1016 95.7179C36.9702 95.6308 36.8021 95.5799 36.6122 95.5436C36.4296 95.5146 36.2031 95.4928 35.9329 95.4855C35.4873 95.4783 35.0417 95.5581 34.5961 95.7252C34.1578 95.8849 33.756 96.1536 33.4053 96.5168C33.0474 96.8726 32.7625 97.3374 32.5434 97.9038C32.3242 98.4703 32.2146 99.1529 32.2146 99.9518C32.2146 100.533 32.3023 101.041 32.4849 101.477C32.6676 101.913 32.9086 102.276 33.2081 102.566C33.5076 102.857 33.851 103.067 34.2235 103.198C34.6034 103.329 34.9905 103.394 35.3923 103.379C35.7429 103.372 36.0497 103.343 36.3054 103.3C36.5684 103.256 36.8021 103.198 37.0067 103.133C37.2112 103.06 37.3938 102.987 37.5546 102.907C37.7153 102.828 37.8614 102.748 38.0075 102.661C38.1536 102.573 38.2923 102.494 38.4238 102.414C38.5845 102.319 38.7306 102.247 38.8914 102.181ZM51.6677 96.1682C51.8211 96.1972 51.9599 96.2698 52.0841 96.3788C52.2082 96.4877 52.3178 96.6184 52.4128 96.7782C52.515 96.938 52.5954 97.1195 52.6685 97.3229C52.7415 97.5262 52.7926 97.7368 52.8438 97.9474C52.8876 98.158 52.9241 98.3759 52.946 98.5937C52.968 98.8116 52.9826 99.0149 52.9899 99.211C52.9972 99.7121 52.9533 100.199 52.8584 100.671C52.7634 101.135 52.6173 101.578 52.4055 101.985C52.2009 102.399 51.938 102.777 51.6092 103.118C51.2878 103.459 50.9007 103.757 50.4478 104.004C49.9948 104.251 49.4762 104.44 48.8918 104.578C48.3001 104.716 47.6427 104.788 46.9049 104.788C46.1013 104.788 45.3781 104.665 44.7426 104.411C44.0998 104.157 43.5592 103.801 43.1136 103.336C42.668 102.871 42.332 102.319 42.0982 101.673C41.8645 101.027 41.7476 100.3 41.7549 99.5088C41.7549 98.8116 41.8279 98.1798 41.9813 97.6206C42.1347 97.0614 42.3466 96.5676 42.6096 96.1391C42.8725 95.7034 43.1867 95.3403 43.5519 95.028C43.9171 94.723 44.3189 94.4688 44.7499 94.28C45.1809 94.0839 45.6411 93.9387 46.1232 93.8443C46.6054 93.7499 47.1021 93.7063 47.5988 93.7063C48.081 93.7063 48.5412 93.7499 48.9941 93.837C49.447 93.9242 49.8634 94.0549 50.2578 94.2292C50.6596 94.4035 51.0175 94.6286 51.3463 94.8973C51.6677 95.166 51.9453 95.4783 52.179 95.8414L51.6677 96.1682ZM50.7765 98.9423C50.7692 98.6954 50.7473 98.4703 50.718 98.2669C50.6961 98.0563 50.6669 97.8675 50.6377 97.7005C50.6158 97.5335 50.5865 97.3809 50.5719 97.243C50.55 97.105 50.55 96.9815 50.5573 96.8726L50.3966 96.967C50.2724 96.7274 50.119 96.5022 49.9437 96.3062C49.7757 96.1028 49.5785 95.9285 49.352 95.7833C49.1256 95.638 48.8699 95.5291 48.585 95.4492C48.3001 95.3693 47.986 95.3258 47.6427 95.3258C47.3651 95.3258 47.0875 95.3621 46.8026 95.4274C46.525 95.5 46.2474 95.609 45.9771 95.7615C45.7142 95.914 45.4658 96.1028 45.2247 96.3352C44.9837 96.5676 44.7864 96.8508 44.6111 97.1849C44.4431 97.5117 44.3043 97.8893 44.202 98.325C44.0998 98.7535 44.0486 99.2328 44.0486 99.7702C44.0486 100.395 44.1363 100.932 44.3189 101.397C44.5015 101.854 44.7353 102.232 45.0202 102.537C45.3124 102.842 45.6338 103.067 45.9917 103.22C46.357 103.372 46.7149 103.445 47.0802 103.445C47.5915 103.445 48.0444 103.379 48.4316 103.234C48.8188 103.096 49.1548 102.907 49.4251 102.675C49.7027 102.443 49.9291 102.174 50.1044 101.869C50.287 101.564 50.4258 101.237 50.5208 100.91C50.6231 100.576 50.6888 100.235 50.7253 99.9009C50.7765 99.5669 50.7911 99.2473 50.7765 98.9423ZM59.3086 102.406C59.1114 102.08 58.8996 101.702 58.6731 101.266C58.4467 100.83 58.2129 100.366 57.9791 99.8791C57.7381 99.3853 57.497 98.8842 57.2559 98.3686C57.0149 97.853 56.7738 97.3519 56.5474 96.8581C56.5255 97.41 56.5035 97.991 56.4816 98.5865C56.467 99.1747 56.4524 99.7557 56.4378 100.329C56.4305 100.896 56.4159 101.433 56.4086 101.942C56.4013 102.45 56.4013 102.893 56.394 103.271C56.394 103.655 56.394 103.96 56.394 104.186C56.394 104.411 56.4013 104.52 56.4086 104.52L54.8599 104.469C54.838 104.229 54.8234 103.902 54.8088 103.496C54.8015 103.082 54.7942 102.602 54.8015 102.058C54.8088 101.513 54.8161 100.925 54.838 100.293C54.8599 99.654 54.8965 99.0004 54.933 98.3178C54.9695 97.6351 55.0279 96.9452 55.0937 96.2481C55.1594 95.5509 55.2325 94.8682 55.3274 94.2001C55.4589 94.2364 55.605 94.251 55.7584 94.2364C55.9191 94.2219 56.0799 94.2001 56.2552 94.1783C56.4305 94.1493 56.6058 94.1202 56.7738 94.0985C56.9491 94.0694 57.1098 94.0549 57.2633 94.0621C57.4167 94.0694 57.5481 94.0985 57.6577 94.1565C57.7746 94.2074 57.8696 94.3091 57.9426 94.4398C57.9791 94.5124 58.0449 94.6576 58.1472 94.89C58.2494 95.1152 58.3809 95.3911 58.527 95.7252C58.6804 96.0592 58.8484 96.4296 59.0384 96.8508C59.2356 97.2648 59.4401 97.6932 59.652 98.129C59.8638 98.5719 60.083 99.0149 60.3094 99.4579C60.5359 99.9082 60.755 100.329 60.9742 100.722C61.2152 100.271 61.4782 99.792 61.7704 99.2836C62.0626 98.768 62.3694 98.2234 62.7054 97.6569C63.0415 97.0905 63.4067 96.5095 63.8012 95.9067C64.1956 95.304 64.612 94.6867 65.0576 94.0621C65.0576 94.0621 65.0649 94.0621 65.0722 94.0694C65.211 94.0985 65.3644 94.1057 65.5251 94.0912C65.6931 94.0694 65.8539 94.0476 66.0146 94.0258C66.1826 93.9968 66.336 93.9677 66.4821 93.946C66.6355 93.9169 66.767 93.9024 66.8765 93.9096C66.9934 93.9169 67.0811 93.9459 67.1468 93.9895C67.2199 94.0404 67.2491 94.1275 67.2491 94.251C67.2491 95.8777 67.2564 97.3664 67.271 98.7172C67.2783 99.1021 67.2783 99.487 67.2783 99.8791C67.2856 100.264 67.2856 100.642 67.2929 101.012C67.3002 101.375 67.3002 101.724 67.3075 102.058C67.3148 102.392 67.3221 102.697 67.3294 102.966C67.3368 103.234 67.3441 103.467 67.3514 103.67C67.3587 103.866 67.3733 104.019 67.3806 104.127C67.3879 104.2 67.366 104.265 67.3148 104.338C67.271 104.403 67.2053 104.462 67.1249 104.512C67.0446 104.563 66.9496 104.607 66.84 104.636C66.7377 104.672 66.6282 104.687 66.5186 104.687C66.2118 104.687 65.9561 104.65 65.7589 104.578C65.569 104.505 65.4229 104.403 65.306 104.258C65.2037 104.113 65.1307 103.939 65.0941 103.728C65.0576 103.517 65.043 103.263 65.0503 102.98V96.9162C64.7508 97.4173 64.4586 97.9183 64.1664 98.4122C63.8815 98.906 63.6112 99.3853 63.3483 99.8356C63.0926 100.286 62.8588 100.707 62.6397 101.099C62.4205 101.484 62.2306 101.825 62.0626 102.116C61.8946 102.406 61.7631 102.631 61.6681 102.806C61.5732 102.973 61.5147 103.067 61.5001 103.082C61.3321 103.227 61.1641 103.336 60.9815 103.409C60.7988 103.481 60.6308 103.517 60.4774 103.517C60.324 103.517 60.1998 103.488 60.0903 103.43C59.9807 103.372 59.8784 103.292 59.7908 103.183C59.7031 103.082 59.6154 102.958 59.5424 102.828C59.462 102.697 59.389 102.552 59.3086 102.406ZM69.3748 100.184L69.9008 100.235L69.8935 94.2945L69.9081 94.3018L69.8935 94.28C69.9957 94.2727 70.1565 94.251 70.3683 94.2292C70.5801 94.2001 70.8358 94.1711 71.128 94.142C71.4202 94.113 71.7489 94.0839 72.1142 94.0694C72.4794 94.0476 72.8666 94.0331 73.283 94.0331C73.7651 94.0331 74.2399 94.0476 74.7001 94.0839C75.1676 94.1202 75.5986 94.1856 76.0077 94.2873C76.4241 94.3889 76.8039 94.5269 77.1473 94.7012C77.4979 94.8755 77.7974 95.1079 78.0531 95.3911C78.3088 95.6743 78.506 96.0157 78.6521 96.4223C78.7982 96.8218 78.8712 97.3011 78.8859 97.853C78.9005 98.5356 78.7836 99.1166 78.5352 99.5959C78.2868 100.075 77.9216 100.475 77.4322 100.78C76.95 101.085 76.3656 101.317 75.6644 101.455C74.9631 101.6 74.1742 101.673 73.283 101.673C73.1003 101.673 72.9104 101.673 72.7059 101.666C72.5086 101.658 72.3041 101.644 72.1069 101.622C72.1142 101.963 72.1215 102.29 72.1288 102.588C72.1361 102.893 72.1507 103.169 72.158 103.416C72.1653 103.663 72.1799 103.881 72.1872 104.062C72.1945 104.244 72.2091 104.374 72.2238 104.462L69.9081 104.541L69.9008 101.339L69.3529 101.273L69.3748 100.184ZM72.757 95.5509C72.494 95.5509 72.2457 95.5581 72.0119 95.5727C72.0119 95.8486 72.0119 96.1609 72.0192 96.524C72.0265 96.8871 72.0265 97.2793 72.0265 97.6932C72.0338 98.1072 72.0338 98.5356 72.0411 98.9859C72.0484 99.4361 72.063 99.8791 72.0704 100.322C72.2311 100.329 72.4064 100.337 72.6036 100.344C72.8008 100.344 73.02 100.344 73.2611 100.344C73.6628 100.344 74.0573 100.3 74.4518 100.228C74.8535 100.148 75.2115 100.017 75.5256 99.8356C75.847 99.6467 76.1027 99.3998 76.2999 99.1021C76.4971 98.7971 76.5994 98.4194 76.6067 97.9692C76.614 97.577 76.5629 97.2502 76.4533 96.9815C76.351 96.7056 76.2122 96.4804 76.0369 96.3062C75.8543 96.1246 75.6425 95.9866 75.4014 95.8922C75.153 95.7905 74.8901 95.7179 74.5979 95.6671C74.313 95.6162 74.0135 95.5872 73.6993 95.5799C73.3852 95.5582 73.0711 95.5509 72.757 95.5509ZM88.7548 103.547C88.8936 103.881 88.9082 104.135 88.784 104.316C88.6672 104.491 88.4261 104.585 88.0681 104.607C87.7613 104.621 87.5057 104.621 87.2865 104.6C87.0747 104.585 86.9067 104.563 86.7679 104.527C86.6364 104.498 86.5341 104.469 86.4684 104.44C86.4099 104.403 86.3734 104.382 86.3734 104.367C86.2492 104.128 86.1177 103.83 85.9789 103.488C85.8475 103.14 85.7014 102.762 85.5626 102.356C85.2777 102.356 84.9636 102.356 84.6275 102.356C84.2915 102.356 83.9409 102.356 83.561 102.356C83.1885 102.356 82.8086 102.356 82.4214 102.356C82.0343 102.348 81.6471 102.348 81.2673 102.348C81.1065 102.777 80.9605 103.183 80.8144 103.576C80.6683 103.968 80.5514 104.331 80.4491 104.658L78.4256 104.403C78.4914 104.236 78.5644 104.048 78.6594 103.83C78.7324 103.648 78.8201 103.43 78.9224 103.176C79.0246 102.922 79.1415 102.639 79.273 102.334H78.7982C78.7324 102.334 78.674 102.334 78.6156 102.326L78.7909 101.23C78.8712 101.23 78.9881 101.23 79.1488 101.23C79.3168 101.23 79.5068 101.23 79.7186 101.237C79.9378 100.7 80.1715 100.141 80.4053 99.5596C80.6463 98.9714 80.8801 98.4049 81.1065 97.8457C81.333 97.2865 81.5522 96.7637 81.7567 96.2771C81.9685 95.7833 82.1512 95.3548 82.3046 94.999L81.7713 94.9409L82.0051 93.9096C82.0343 93.9169 82.0781 93.9242 82.1365 93.9314C82.2023 93.9387 82.2753 93.9532 82.3557 93.9677C82.4434 93.975 82.531 93.9895 82.626 94.004C82.7282 94.0113 82.8232 94.0186 82.9109 94.0258C83.057 94.0331 83.2104 94.0186 83.3711 93.9968C83.5391 93.9677 83.6998 93.9314 83.8605 93.9024C84.0212 93.8661 84.1746 93.837 84.3353 93.8152C84.496 93.7934 84.6421 93.7862 84.7663 93.8007C84.8978 93.8152 85.0074 93.8588 85.1097 93.9314C85.2119 94.004 85.2923 94.1275 85.3507 94.2873C85.4019 94.4543 85.4822 94.7157 85.5991 95.0788C85.716 95.4347 85.8548 95.8632 86.0155 96.3497C86.1835 96.8363 86.3661 97.3737 86.5706 97.9619C86.7825 98.5502 87.0016 99.1529 87.2354 99.7847C87.4691 100.417 87.7175 101.056 87.9659 101.702C88.2289 102.334 88.4918 102.951 88.7548 103.547ZM81.6836 101.252C81.9904 101.252 82.2973 101.252 82.6041 101.259C82.9182 101.259 83.225 101.259 83.5245 101.266C83.824 101.266 84.1162 101.266 84.3938 101.273C84.6787 101.273 84.9416 101.273 85.19 101.273C85.0585 100.896 84.9343 100.518 84.8175 100.133C84.7006 99.7484 84.5837 99.3708 84.4741 99.0149C84.3645 98.6518 84.2623 98.3105 84.1746 97.9982C84.087 97.6787 84.0066 97.3882 83.9336 97.134C83.8678 96.8799 83.8167 96.6693 83.7729 96.5022C83.7363 96.3352 83.7144 96.219 83.7144 96.1682C83.5026 96.6693 83.2907 97.1994 83.0643 97.7586C82.867 98.2379 82.6552 98.7826 82.4141 99.3926C82.1731 99.9953 81.932 100.613 81.6836 101.252ZM89.7191 100.184L90.245 100.235L90.2377 94.2945L90.2523 94.3018L90.2377 94.28C90.34 94.2727 90.5007 94.251 90.7125 94.2292C90.9244 94.2001 91.18 94.1711 91.4722 94.142C91.7644 94.113 92.0932 94.0839 92.4584 94.0694C92.8237 94.0476 93.2108 94.0331 93.6272 94.0331C94.1093 94.0331 94.5841 94.0476 95.0444 94.0839C95.5119 94.1202 95.9429 94.1856 96.3519 94.2873C96.7683 94.3889 97.1482 94.5269 97.4915 94.7012C97.8421 94.8755 98.1416 95.1079 98.3973 95.3911C98.653 95.6743 98.8502 96.0157 98.9963 96.4223C99.1424 96.8218 99.2155 97.3011 99.2301 97.853C99.2374 98.3032 99.1936 98.7099 99.084 99.073C98.9817 99.4361 98.821 99.7557 98.6019 100.039C98.39 100.315 98.127 100.562 97.8056 100.765C97.4842 100.968 97.119 101.135 96.7099 101.273C96.9875 101.695 97.2943 102.109 97.6303 102.523C97.9663 102.937 98.3389 103.321 98.748 103.685C98.9306 103.931 98.989 104.149 98.9233 104.331C98.8502 104.512 98.6676 104.636 98.3681 104.701C98.1124 104.767 97.8933 104.81 97.718 104.825C97.5353 104.846 97.3892 104.854 97.2724 104.846C97.1555 104.846 97.0605 104.839 97.0021 104.817C96.9436 104.803 96.9071 104.788 96.8925 104.781C96.6953 104.658 96.498 104.476 96.3008 104.236C96.1036 103.997 95.9063 103.735 95.7091 103.438C95.5119 103.147 95.3292 102.842 95.1466 102.53C94.964 102.21 94.796 101.913 94.6426 101.637C94.4819 101.644 94.3212 101.651 94.1459 101.658C93.9778 101.666 93.8025 101.666 93.6272 101.666C93.4446 101.666 93.2547 101.666 93.0501 101.658C92.8529 101.651 92.6483 101.637 92.4511 101.615C92.4584 101.956 92.4657 102.283 92.473 102.581C92.4803 102.878 92.4949 103.162 92.5022 103.409C92.5095 103.655 92.5242 103.873 92.5315 104.055C92.5388 104.236 92.5534 104.367 92.568 104.454L90.2523 104.534L90.245 101.332L89.6971 101.266L89.7191 100.184ZM93.1012 95.5509C92.8383 95.5509 92.5899 95.5581 92.3561 95.5727C92.3561 95.8486 92.3561 96.1609 92.3634 96.524C92.3708 96.8871 92.3708 97.2793 92.3708 97.6932C92.3781 98.1072 92.3781 98.5356 92.3854 98.9859C92.3927 99.4361 92.4073 99.8791 92.4146 100.322C92.5753 100.329 92.7506 100.337 92.9478 100.344C93.1451 100.344 93.3642 100.344 93.6053 100.344C94.0071 100.344 94.4015 100.3 94.796 100.228C95.1978 100.148 95.5557 100.017 95.8698 99.8356C96.1912 99.6467 96.4469 99.3998 96.6441 99.1021C96.8414 98.7971 96.9436 98.4194 96.9509 97.9692C96.9583 97.577 96.9071 97.2502 96.7975 96.9815C96.6953 96.7056 96.5565 96.4804 96.3812 96.3062C96.1985 96.1246 95.9867 95.9866 95.7456 95.8922C95.5046 95.7905 95.2343 95.7179 94.9421 95.6671C94.6572 95.6162 94.3577 95.5872 94.0436 95.5799C93.7295 95.5582 93.4154 95.5509 93.1012 95.5509ZM102.802 104.498V104.491C102.495 104.491 102.24 104.462 102.042 104.396C101.853 104.331 101.706 104.236 101.59 104.098C101.487 103.968 101.414 103.793 101.378 103.59C101.341 103.379 101.327 103.14 101.327 102.864L101.363 95.1442L100.801 95.1587L100.823 94.0767C100.998 94.0694 101.166 94.0694 101.334 94.0694C101.48 94.0694 101.626 94.0694 101.78 94.0694C101.94 94.0694 102.079 94.0694 102.203 94.0621H102.473C102.663 94.0621 102.934 94.0621 103.299 94.0549C103.664 94.0476 104.066 94.0476 104.512 94.0404C104.957 94.0331 105.417 94.0258 105.907 94.0186C106.389 94.0113 106.849 93.9968 107.28 93.9895C107.711 93.9823 108.091 93.9677 108.42 93.9605C108.756 93.9459 108.997 93.9314 109.136 93.9169C109.194 93.9169 109.252 93.9387 109.311 93.975C109.369 94.0186 109.42 94.0694 109.464 94.142C109.508 94.2146 109.545 94.2945 109.567 94.3817C109.596 94.4688 109.61 94.5632 109.61 94.6504C109.61 94.8973 109.581 95.1006 109.53 95.2531C109.472 95.4056 109.391 95.5218 109.282 95.6017C109.179 95.6889 109.041 95.7397 108.88 95.776C108.719 95.8051 108.522 95.8196 108.303 95.8123H103.555C103.555 95.9939 103.555 96.1827 103.555 96.3715C103.555 96.5603 103.555 96.7637 103.555 96.9743C103.555 97.1849 103.555 97.41 103.555 97.6497C103.562 97.8893 103.562 98.1507 103.562 98.4412C103.832 98.4412 104.117 98.4412 104.409 98.4412C104.709 98.4412 105.008 98.4412 105.308 98.4412C105.607 98.434 105.899 98.434 106.177 98.4267C106.462 98.4194 106.718 98.4194 106.959 98.4122C107.2 98.4049 107.404 98.4049 107.58 98.3977C107.762 98.3904 107.894 98.3831 107.974 98.3759C108.025 98.3759 108.076 98.3977 108.127 98.434C108.179 98.4703 108.222 98.5138 108.252 98.5719C108.296 98.63 108.325 98.6954 108.339 98.7753C108.361 98.8479 108.376 98.9278 108.376 99.0004C108.376 99.2038 108.354 99.3635 108.31 99.487C108.266 99.6032 108.201 99.6976 108.106 99.7629C108.018 99.821 107.908 99.8573 107.777 99.8719C107.645 99.8864 107.485 99.8937 107.302 99.8937L103.562 99.8791C103.569 100.417 103.569 100.932 103.577 101.419C103.584 101.913 103.591 102.348 103.598 102.74C103.81 102.74 104.073 102.74 104.38 102.74C104.687 102.74 105.023 102.74 105.366 102.74C105.724 102.733 106.082 102.733 106.447 102.733C106.813 102.726 107.156 102.726 107.47 102.719C107.791 102.711 108.084 102.711 108.339 102.704C108.602 102.697 108.8 102.682 108.931 102.675C108.989 102.668 109.048 102.69 109.106 102.726C109.165 102.769 109.216 102.82 109.267 102.886C109.311 102.951 109.347 103.024 109.369 103.111C109.391 103.198 109.406 103.285 109.406 103.372C109.406 103.619 109.377 103.822 109.326 103.975C109.274 104.127 109.194 104.251 109.084 104.331C108.975 104.418 108.836 104.469 108.675 104.505C108.515 104.534 108.325 104.549 108.098 104.541L102.802 104.498Z" fill="#366FE0"/>
<path d="M119.757 102.406C119.56 102.08 119.348 101.702 119.122 101.266C118.895 100.831 118.662 100.366 118.428 99.8792C118.187 99.3854 117.946 98.8843 117.705 98.3687C117.463 97.8531 117.222 97.352 116.996 96.8581C116.974 97.4101 116.945 97.991 116.93 98.5865C116.916 99.1748 116.901 99.7557 116.886 100.329C116.879 100.896 116.864 101.433 116.857 101.942C116.85 102.45 116.85 102.893 116.843 103.271C116.843 103.656 116.843 103.961 116.843 104.186C116.843 104.411 116.85 104.52 116.857 104.52L115.309 104.469C115.287 104.229 115.272 103.902 115.257 103.496C115.25 103.082 115.243 102.603 115.25 102.058C115.257 101.513 115.265 100.925 115.287 100.293C115.309 99.6541 115.345 99.0005 115.382 98.3178C115.418 97.6352 115.477 96.9453 115.542 96.2481C115.608 95.551 115.681 94.8683 115.776 94.2002C115.908 94.2365 116.054 94.251 116.207 94.2365C116.368 94.222 116.536 94.2002 116.704 94.1784C116.879 94.1494 117.054 94.1203 117.222 94.0985C117.398 94.0695 117.558 94.0549 117.712 94.0622C117.865 94.0695 117.997 94.0985 118.106 94.1566C118.223 94.2074 118.318 94.3091 118.391 94.4398C118.428 94.5125 118.493 94.6577 118.596 94.8901C118.698 95.1152 118.83 95.3912 118.976 95.7252C119.122 96.0593 119.297 96.4297 119.487 96.8509C119.684 97.2648 119.889 97.6933 120.101 98.129C120.312 98.572 120.539 99.015 120.758 99.458C120.984 99.9082 121.204 100.329 121.423 100.722C121.664 100.271 121.927 99.7921 122.219 99.2837C122.511 98.7681 122.818 98.2234 123.154 97.657C123.49 97.0905 123.855 96.5096 124.25 95.9068C124.644 95.304 125.061 94.6868 125.506 94.0622C125.506 94.0622 125.514 94.0622 125.521 94.0695C125.66 94.0985 125.813 94.1058 125.974 94.0913C126.142 94.0695 126.302 94.0477 126.463 94.0259C126.631 93.9968 126.785 93.9678 126.931 93.946C127.084 93.917 127.216 93.9024 127.325 93.9097C127.442 93.917 127.53 93.946 127.595 93.9896C127.668 94.0404 127.698 94.1276 127.698 94.251C127.698 95.8777 127.705 97.3665 127.72 98.7173C127.727 99.1022 127.727 99.487 127.727 99.8792C127.734 100.264 127.734 100.642 127.742 101.012C127.749 101.375 127.749 101.724 127.756 102.058C127.763 102.392 127.771 102.697 127.778 102.966C127.785 103.234 127.793 103.467 127.8 103.67C127.807 103.866 127.822 104.019 127.829 104.128C127.836 104.2 127.815 104.266 127.763 104.338C127.72 104.404 127.654 104.462 127.574 104.512C127.493 104.563 127.398 104.607 127.289 104.636C127.186 104.672 127.077 104.687 126.967 104.687C126.66 104.687 126.405 104.65 126.207 104.578C126.018 104.505 125.864 104.404 125.755 104.258C125.652 104.113 125.579 103.939 125.543 103.728C125.506 103.518 125.492 103.263 125.499 102.98V96.9162C125.199 97.4173 124.907 97.9184 124.615 98.4122C124.33 98.9061 124.06 99.3854 123.797 99.8356C123.541 100.286 123.307 100.707 123.088 101.099C122.869 101.484 122.679 101.825 122.511 102.116C122.343 102.406 122.212 102.632 122.117 102.806C122.022 102.973 121.963 103.067 121.949 103.082C121.781 103.227 121.613 103.336 121.43 103.409C121.247 103.481 121.087 103.518 120.926 103.518C120.773 103.518 120.648 103.488 120.539 103.43C120.429 103.372 120.327 103.292 120.239 103.183C120.152 103.082 120.064 102.958 119.991 102.828C119.911 102.697 119.838 102.552 119.757 102.406ZM133.038 103.721C133.03 103.583 133.023 103.38 133.016 103.104C133.008 102.828 133.001 102.53 132.994 102.21C132.986 101.891 132.979 101.564 132.972 101.237C132.965 100.903 132.965 100.613 132.957 100.359C132.307 100.286 131.767 100.126 131.343 99.8647C130.912 99.6105 130.569 99.2619 130.306 98.8262C130.05 98.3905 129.867 97.8676 129.758 97.2648C129.655 96.6621 129.604 95.9722 129.604 95.2096V95.1661L129.166 95.1806L129.173 94.0913L130.934 94.0404L130.926 94.0549L131.905 94.0041V95.1297C131.905 95.8269 131.949 96.4297 132.03 96.9235C132.117 97.4173 132.241 97.824 132.417 98.1435C132.592 98.4558 132.811 98.6882 133.074 98.8334C133.344 98.9787 133.659 99.0513 134.016 99.0513C134.433 99.0513 134.783 98.9932 135.076 98.877C135.368 98.7608 135.609 98.6011 135.799 98.405C135.996 98.2089 136.142 97.9765 136.259 97.7223C136.369 97.4609 136.449 97.1849 136.5 96.8945C136.551 96.604 136.588 96.3062 136.595 96.0012C136.61 95.6962 136.617 95.4057 136.617 95.1225C136.617 95.0353 136.624 94.9191 136.632 94.7739C136.646 94.6287 136.675 94.4834 136.727 94.3454C136.785 94.2074 136.858 94.084 136.953 93.9896C137.055 93.8879 137.187 93.8298 137.362 93.8298C137.72 93.8298 137.998 93.8952 138.195 94.0186C138.392 94.1348 138.538 94.2801 138.633 94.4616C138.735 94.6287 138.794 94.8029 138.816 94.9918C138.838 95.1733 138.845 95.3186 138.845 95.4348C138.845 96.0157 138.787 96.5677 138.67 97.0978C138.56 97.6207 138.37 98.1 138.093 98.5284C137.822 98.9569 137.457 99.32 136.997 99.625C136.537 99.93 135.96 100.148 135.273 100.279C135.273 100.533 135.273 100.823 135.266 101.157C135.258 101.491 135.251 101.825 135.244 102.152C135.236 102.486 135.229 102.791 135.222 103.082C135.214 103.365 135.2 103.583 135.185 103.743C135.171 103.939 135.134 104.091 135.09 104.222C135.046 104.345 134.981 104.44 134.893 104.512C134.805 104.585 134.703 104.636 134.572 104.658C134.44 104.687 134.287 104.701 134.104 104.701C133.863 104.701 133.673 104.672 133.527 104.629C133.388 104.578 133.279 104.512 133.206 104.418C133.133 104.331 133.081 104.229 133.052 104.113C133.06 103.982 133.045 103.859 133.038 103.721ZM151.249 95.6308C150.942 95.5873 150.555 95.5509 150.102 95.5292C149.649 95.5074 149.152 95.4856 148.626 95.4856C148.626 95.7616 148.626 96.0738 148.619 96.4369C148.619 96.7928 148.619 97.1777 148.619 97.5916C148.619 98.0056 148.619 98.434 148.619 98.877C148.626 99.32 148.626 99.7557 148.634 100.199C148.641 100.634 148.648 101.063 148.656 101.47C148.663 101.884 148.677 102.261 148.685 102.61C148.699 102.958 148.714 103.263 148.729 103.525C148.751 103.786 148.772 103.99 148.794 104.135C148.802 104.207 148.78 104.273 148.729 104.345C148.677 104.411 148.612 104.469 148.524 104.52C148.436 104.571 148.341 104.614 148.232 104.643C148.122 104.679 148.013 104.694 147.903 104.694C147.596 104.694 147.348 104.665 147.151 104.6C146.968 104.534 146.822 104.44 146.712 104.309C146.61 104.178 146.544 104.004 146.501 103.801C146.464 103.597 146.442 103.358 146.435 103.075C146.428 103.002 146.428 102.864 146.428 102.661C146.428 102.457 146.428 102.21 146.428 101.927C146.428 101.637 146.428 101.31 146.428 100.954C146.435 100.591 146.435 100.213 146.435 99.8211C146.442 99.4289 146.442 99.0295 146.442 98.6301C146.449 98.2307 146.449 97.8385 146.449 97.4609C146.457 97.076 146.457 96.7202 146.457 96.3861C146.464 96.052 146.464 95.7616 146.464 95.5146C145.924 95.5364 145.398 95.5582 144.894 95.5945C144.389 95.6236 143.937 95.6599 143.527 95.7035L143.425 94.3745C143.82 94.3019 144.251 94.251 144.718 94.2002C145.193 94.1494 145.682 94.113 146.186 94.084C146.698 94.0477 147.202 94.0259 147.713 94.0186C148.225 94.0041 148.707 93.9968 149.174 93.9968C149.642 93.9968 150.08 94.0041 150.474 94.0259C150.876 94.0404 151.212 94.0622 151.49 94.0913C151.599 94.0985 151.694 94.1348 151.775 94.1784C151.862 94.2292 151.928 94.2873 151.987 94.3672C152.038 94.4398 152.082 94.527 152.118 94.6214C152.147 94.7085 152.162 94.8029 152.162 94.8974C152.162 94.999 152.14 95.0934 152.096 95.1951C152.06 95.2895 151.994 95.3767 151.914 95.4493C151.833 95.5219 151.738 95.58 151.621 95.6236C151.526 95.6454 151.395 95.6526 151.249 95.6308ZM153.017 100.184L153.543 100.235L153.535 94.2946L153.55 94.3019L153.535 94.2801C153.638 94.2728 153.798 94.251 154.01 94.2292C154.222 94.2002 154.478 94.1711 154.77 94.1421C155.062 94.113 155.391 94.084 155.756 94.0695C156.121 94.0477 156.508 94.0332 156.925 94.0332C157.407 94.0332 157.882 94.0477 158.342 94.084C158.802 94.1203 159.24 94.1857 159.649 94.2873C160.066 94.389 160.446 94.527 160.789 94.7013C161.14 94.8756 161.439 95.108 161.695 95.3912C161.951 95.6744 162.148 96.0157 162.294 96.4224C162.44 96.8218 162.513 97.3011 162.528 97.8531C162.535 98.3033 162.491 98.71 162.374 99.0731C162.272 99.4362 162.111 99.7557 161.892 100.039C161.68 100.315 161.417 100.562 161.096 100.765C160.774 100.969 160.409 101.136 160 101.274C160.278 101.695 160.584 102.109 160.921 102.523C161.257 102.937 161.629 103.321 162.038 103.685C162.221 103.931 162.279 104.149 162.214 104.331C162.14 104.512 161.958 104.636 161.658 104.701C161.403 104.767 161.183 104.81 161.008 104.825C160.826 104.847 160.679 104.854 160.563 104.847C160.446 104.847 160.351 104.839 160.292 104.817C160.234 104.803 160.197 104.788 160.183 104.781C159.985 104.658 159.788 104.476 159.591 104.237C159.394 103.997 159.197 103.735 158.999 103.438C158.802 103.147 158.619 102.842 158.437 102.53C158.254 102.21 158.086 101.913 157.933 101.637C157.772 101.644 157.611 101.651 157.436 101.658C157.268 101.666 157.093 101.666 156.917 101.666C156.735 101.666 156.545 101.666 156.34 101.658C156.143 101.651 155.939 101.637 155.741 101.615C155.749 101.956 155.756 102.283 155.763 102.581C155.771 102.886 155.785 103.162 155.792 103.409C155.8 103.656 155.814 103.873 155.822 104.055C155.829 104.237 155.844 104.367 155.858 104.454L153.543 104.534L153.535 101.332L152.987 101.266L153.017 100.184ZM156.391 95.551C156.128 95.551 155.88 95.5582 155.654 95.5727C155.654 95.8487 155.654 96.161 155.661 96.5241C155.668 96.8872 155.668 97.2793 155.668 97.6933C155.676 98.1072 155.676 98.5357 155.683 98.986C155.69 99.4362 155.705 99.8792 155.712 100.322C155.873 100.329 156.048 100.337 156.245 100.344C156.443 100.344 156.662 100.344 156.903 100.344C157.305 100.344 157.699 100.3 158.094 100.228C158.495 100.148 158.853 100.017 159.167 99.8356C159.489 99.6468 159.744 99.3999 159.942 99.1022C160.139 98.7971 160.241 98.4195 160.248 97.9692C160.256 97.5771 160.205 97.2503 160.095 96.9816C159.993 96.7056 159.854 96.4805 159.679 96.3062C159.496 96.1247 159.284 95.9867 159.043 95.8923C158.802 95.7906 158.532 95.718 158.24 95.6671C157.955 95.6163 157.655 95.5873 157.341 95.58C157.027 95.5582 156.706 95.551 156.391 95.551ZM173.85 103.547C173.989 103.881 174.004 104.135 173.879 104.316C173.763 104.491 173.522 104.585 173.156 104.607C172.849 104.621 172.594 104.621 172.375 104.6C172.163 104.585 171.995 104.563 171.856 104.527C171.725 104.498 171.622 104.469 171.557 104.44C171.498 104.404 171.462 104.382 171.462 104.367C171.337 104.128 171.206 103.83 171.067 103.488C170.936 103.14 170.789 102.762 170.651 102.356C170.366 102.356 170.052 102.356 169.716 102.356C169.38 102.356 169.029 102.356 168.649 102.356C168.284 102.356 167.904 102.356 167.51 102.356C167.122 102.348 166.735 102.348 166.355 102.348C166.195 102.777 166.049 103.183 165.902 103.576C165.764 103.968 165.64 104.331 165.537 104.658L163.514 104.404C163.58 104.236 163.653 104.048 163.748 103.83C163.821 103.648 163.908 103.43 164.011 103.176C164.113 102.922 164.23 102.639 164.361 102.334H163.886C163.821 102.334 163.762 102.334 163.704 102.327L163.879 101.23C163.959 101.23 164.076 101.23 164.237 101.23C164.405 101.23 164.595 101.23 164.807 101.237C165.026 100.7 165.26 100.141 165.493 99.5597C165.734 98.9714 165.968 98.405 166.195 97.8458C166.421 97.2866 166.64 96.7637 166.845 96.2772C167.057 95.7833 167.239 95.3549 167.393 94.999L166.859 94.9409L167.093 93.9097C167.122 93.917 167.166 93.9242 167.232 93.9315C167.298 93.9387 167.371 93.9533 167.451 93.9678C167.539 93.9751 167.626 93.9896 167.721 94.0041C167.824 94.0114 167.919 94.0186 168.006 94.0259C168.152 94.0332 168.306 94.0186 168.467 93.9968C168.635 93.9678 168.795 93.9315 168.956 93.9024C169.117 93.8661 169.27 93.8371 169.431 93.8153C169.591 93.7935 169.738 93.7862 169.869 93.8008C170.001 93.8153 170.11 93.8589 170.212 93.9315C170.315 94.0041 170.395 94.1276 170.453 94.2873C170.505 94.4544 170.585 94.7158 170.702 95.0789C170.819 95.4348 170.958 95.8632 171.118 96.3498C171.279 96.8364 171.469 97.3738 171.673 97.962C171.885 98.5502 172.104 99.153 172.338 99.7848C172.572 100.417 172.82 101.056 173.069 101.702C173.324 102.334 173.58 102.951 173.85 103.547ZM166.779 101.252C167.086 101.252 167.393 101.252 167.7 101.259C168.014 101.259 168.32 101.259 168.62 101.266C168.919 101.266 169.212 101.266 169.489 101.274C169.774 101.274 170.037 101.274 170.285 101.274C170.154 100.896 170.03 100.518 169.913 100.133C169.796 99.7485 169.679 99.3708 169.57 99.015C169.46 98.6519 169.358 98.3106 169.27 97.9983C169.182 97.6788 169.102 97.3883 169.029 97.1341C168.963 96.8799 168.912 96.6693 168.876 96.5023C168.839 96.3353 168.817 96.2191 168.817 96.1682C168.605 96.6693 168.393 97.1995 168.167 97.7587C167.97 98.238 167.758 98.7826 167.517 99.3926C167.261 99.9954 167.02 100.613 166.779 101.252ZM174.756 94.1784L176.392 94.1203C176.568 94.1058 176.772 94.0913 177.006 94.084C177.24 94.0695 177.481 94.0622 177.729 94.0549C177.985 94.0477 178.233 94.0404 178.489 94.0404C178.737 94.0332 178.971 94.0332 179.176 94.0332C179.702 94.0332 180.213 94.0767 180.71 94.1639C181.206 94.251 181.674 94.3963 182.112 94.5851C182.55 94.7739 182.952 95.0136 183.31 95.3113C183.675 95.6018 183.99 95.9576 184.245 96.3716C184.508 96.7783 184.705 97.2503 184.851 97.7804C184.998 98.3033 185.071 98.8988 185.071 99.5597C185.071 100.315 184.946 101.005 184.698 101.622C184.45 102.239 184.084 102.777 183.602 103.22C183.12 103.663 182.536 104.004 181.842 104.244C181.148 104.491 180.359 104.607 179.468 104.607C179.329 104.607 179.132 104.607 178.869 104.6C178.606 104.592 178.335 104.585 178.051 104.571C177.766 104.563 177.495 104.549 177.24 104.534C176.984 104.52 176.794 104.498 176.663 104.476C176.422 104.462 176.224 104.44 176.056 104.404C175.888 104.36 175.757 104.302 175.655 104.215C175.552 104.128 175.472 104.019 175.421 103.881C175.377 103.735 175.355 103.547 175.355 103.314L175.311 95.2387L174.756 95.2605V94.1784ZM178.942 95.5582C178.84 95.5582 178.723 95.5582 178.598 95.5582C178.474 95.5582 178.343 95.5582 178.211 95.5582C178.08 95.5582 177.956 95.5582 177.824 95.5655C177.7 95.5655 177.583 95.5655 177.474 95.5727C177.481 95.9141 177.481 96.299 177.488 96.7202C177.495 97.1414 177.495 97.5844 177.503 98.0419C177.51 98.4994 177.517 98.9642 177.525 99.4435C177.532 99.9228 177.547 100.38 177.554 100.838C177.561 101.288 177.576 101.717 177.583 102.123C177.598 102.53 177.612 102.893 177.627 103.213C177.875 103.242 178.16 103.263 178.489 103.271C178.818 103.278 179.139 103.285 179.453 103.285C179.855 103.285 180.249 103.198 180.637 103.031C181.024 102.864 181.374 102.617 181.681 102.298C181.988 101.978 182.244 101.593 182.434 101.136C182.623 100.671 182.718 100.155 182.718 99.5742C182.718 98.8189 182.609 98.1871 182.39 97.6788C182.178 97.1632 181.893 96.7492 181.535 96.4369C181.177 96.1247 180.775 95.8995 180.322 95.7688C179.87 95.6308 179.409 95.5582 178.942 95.5582ZM188.446 104.498V104.491C188.139 104.491 187.883 104.462 187.686 104.396C187.496 104.331 187.35 104.236 187.233 104.099C187.131 103.968 187.058 103.794 187.021 103.59C186.985 103.38 186.97 103.14 186.97 102.864L187.006 95.1443L186.444 95.1588L186.466 94.0767C186.641 94.0695 186.809 94.0695 186.977 94.0695C187.123 94.0695 187.269 94.0695 187.43 94.0695C187.591 94.0695 187.73 94.0695 187.854 94.0622H188.124C188.314 94.0622 188.592 94.0622 188.95 94.0549C189.315 94.0477 189.717 94.0477 190.162 94.0404C190.608 94.0332 191.068 94.0259 191.557 94.0186C192.04 94.0114 192.5 93.9968 192.931 93.9896C193.362 93.9823 193.742 93.9678 194.07 93.9605C194.406 93.946 194.647 93.9315 194.793 93.917C194.852 93.917 194.91 93.9387 194.969 93.9751C195.027 94.0186 195.078 94.0695 195.122 94.1421C195.166 94.2147 195.203 94.2946 195.224 94.3817C195.254 94.4689 195.268 94.5633 195.268 94.6504C195.268 94.8974 195.239 95.1007 195.188 95.2532C195.137 95.4057 195.049 95.5219 194.94 95.6018C194.837 95.6889 194.699 95.7398 194.538 95.7761C194.37 95.8051 194.18 95.8197 193.961 95.8124H189.205C189.205 95.9939 189.205 96.1828 189.205 96.3716C189.205 96.5604 189.205 96.7637 189.205 96.9743C189.205 97.1849 189.205 97.4101 189.205 97.6497C189.213 97.8894 189.213 98.1508 189.213 98.4413C189.483 98.4413 189.768 98.4413 190.06 98.4413C190.359 98.4413 190.659 98.4413 190.958 98.4413C191.258 98.434 191.55 98.434 191.828 98.4268C192.113 98.4195 192.368 98.4195 192.609 98.4122C192.85 98.405 193.055 98.405 193.23 98.3977C193.413 98.3905 193.544 98.3832 193.625 98.3759C193.676 98.3759 193.727 98.3977 193.778 98.434C193.829 98.4703 193.873 98.5139 193.902 98.572C193.939 98.6301 193.975 98.6955 193.99 98.7754C194.012 98.848 194.026 98.9279 194.026 99.0005C194.026 99.2038 194.005 99.3636 193.961 99.487C193.917 99.6032 193.851 99.6976 193.756 99.763C193.669 99.8211 193.559 99.8574 193.427 99.8719C193.296 99.8865 193.135 99.8937 192.953 99.8937L189.213 99.8792C189.22 100.417 189.22 100.932 189.227 101.419C189.234 101.913 189.242 102.348 189.249 102.74C189.461 102.74 189.724 102.74 190.031 102.74C190.337 102.74 190.674 102.74 191.017 102.74C191.375 102.733 191.733 102.733 192.098 102.733C192.463 102.726 192.807 102.726 193.121 102.719C193.442 102.711 193.734 102.711 193.99 102.704C194.246 102.697 194.45 102.682 194.582 102.675C194.64 102.668 194.699 102.69 194.757 102.726C194.815 102.77 194.867 102.82 194.918 102.886C194.962 102.951 194.998 103.024 195.02 103.111C195.049 103.198 195.056 103.285 195.056 103.372C195.056 103.619 195.027 103.823 194.976 103.975C194.925 104.128 194.845 104.251 194.735 104.331C194.625 104.418 194.487 104.469 194.326 104.505C194.165 104.534 193.975 104.549 193.749 104.542L188.446 104.498Z" fill="#9DA2B8"/>
<path d="M78.236 80.6536C78.236 80.6536 68.6738 81.6558 55.1451 73.0066C55.1451 73.0066 44.7209 67.8649 31.0388 75.8025C31.0388 75.8025 27.5178 78.3007 23.186 72.6798L20.2129 73.0138C20.2129 73.0138 25.0853 76.8918 23.3248 82.6798C23.3248 82.6798 15.6035 93.7182 28.1972 104.081C28.1972 104.081 12.8714 82.2586 40.1042 75.0327C40.6083 74.8947 41.0977 74.7785 41.5725 74.6696C41.6748 74.6478 41.7478 74.6478 41.8793 74.597C41.8793 74.597 47.4018 73.74 51.9017 74.6696C51.9017 74.6696 52.7417 74.8148 54.809 75.2651C56.4892 75.6282 58.8779 76.9935 62.5961 79.114C62.5961 79.114 69.7768 81.8664 78.236 80.6536Z" fill="#1763EA"/>
<path d="M36.1153 114.381H38.6501V117.983C38.2557 118.107 37.8539 118.201 37.4448 118.267C37.0357 118.332 36.5609 118.361 36.0277 118.361C34.8954 118.361 34.0188 118.027 33.3906 117.359C32.7624 116.691 32.4482 115.754 32.4482 114.548C32.4482 113.779 32.6016 113.103 32.9158 112.522C33.2299 111.941 33.6755 111.498 34.2599 111.193C34.8443 110.888 35.5309 110.736 36.3126 110.736C37.1088 110.736 37.8466 110.881 38.5332 111.171L38.1972 111.934C37.5252 111.651 36.875 111.505 36.2541 111.505C35.3483 111.505 34.6397 111.774 34.1284 112.312C33.617 112.849 33.3614 113.597 33.3614 114.548C33.3614 115.55 33.6097 116.306 34.0992 116.829C34.5886 117.344 35.3118 117.606 36.2687 117.606C36.7874 117.606 37.2914 117.548 37.7808 117.431V115.151H36.1153V114.381ZM41.1703 118.267H40.323V112.711H41.1703V118.267ZM40.2499 111.2C40.2499 111.012 40.301 110.866 40.396 110.779C40.491 110.685 40.6079 110.641 40.7539 110.641C40.8927 110.641 41.0096 110.685 41.1046 110.779C41.2069 110.874 41.2507 111.012 41.2507 111.2C41.2507 111.389 41.1995 111.535 41.1046 111.629C41.0096 111.723 40.8854 111.767 40.7539 111.767C40.6079 111.767 40.491 111.723 40.396 111.629C40.2937 111.535 40.2499 111.389 40.2499 111.2ZM44.1873 118.267L42.0688 112.711H42.9746L44.18 116.008C44.4502 116.778 44.611 117.279 44.6621 117.511H44.7059C44.7424 117.33 44.8593 116.959 45.0566 116.4C45.2538 115.834 45.7067 114.606 46.4007 112.711H47.3065L45.188 118.267H44.1873ZM49.045 118.267H48.1977V112.711H49.045V118.267ZM48.1246 111.2C48.1246 111.012 48.1758 110.866 48.2707 110.779C48.3657 110.685 48.4826 110.641 48.6287 110.641C48.7675 110.641 48.8843 110.685 48.9793 110.779C49.0816 110.874 49.1254 111.012 49.1254 111.2C49.1254 111.389 49.0743 111.535 48.9793 111.629C48.8843 111.723 48.7602 111.767 48.6287 111.767C48.4826 111.767 48.3657 111.723 48.2707 111.629C48.1685 111.535 48.1246 111.389 48.1246 111.2ZM54.6625 118.267V114.672C54.6625 114.222 54.5603 113.88 54.3484 113.655C54.1439 113.43 53.8152 113.321 53.3769 113.321C52.7925 113.321 52.3615 113.481 52.0912 113.793C51.8209 114.105 51.6821 114.628 51.6821 115.347V118.259H50.8348V112.704H51.5214L51.6602 113.466H51.704C51.8794 113.19 52.1204 112.98 52.4345 112.834C52.7486 112.682 53.0993 112.602 53.4791 112.602C54.1512 112.602 54.6625 112.762 54.9986 113.089C55.3419 113.408 55.5099 113.924 55.5099 114.635V118.259H54.6625V118.267ZM61.8287 112.704V113.234L60.7914 113.357C60.8863 113.474 60.974 113.633 61.047 113.822C61.1201 114.011 61.1566 114.229 61.1566 114.468C61.1566 115.013 60.9667 115.449 60.5941 115.768C60.2216 116.095 59.7102 116.255 59.0528 116.255C58.8848 116.255 58.7314 116.24 58.5853 116.211C58.2273 116.4 58.0447 116.64 58.0447 116.923C58.0447 117.076 58.1105 117.192 58.2346 117.264C58.3588 117.337 58.578 117.373 58.8848 117.373H59.871C60.4773 117.373 60.9375 117.497 61.2662 117.751C61.5949 118.005 61.7556 118.375 61.7556 118.855C61.7556 119.472 61.5073 119.937 61.0105 120.256C60.5138 120.583 59.7906 120.743 58.841 120.743C58.1105 120.743 57.548 120.605 57.1462 120.336C56.7517 120.068 56.5545 119.683 56.5545 119.189C56.5545 118.855 56.6641 118.557 56.8832 118.31C57.1024 118.063 57.4092 117.896 57.8037 117.809C57.6576 117.744 57.5407 117.642 57.4384 117.511C57.3434 117.373 57.2923 117.221 57.2923 117.039C57.2923 116.836 57.3434 116.662 57.453 116.509C57.5626 116.357 57.7306 116.211 57.9717 116.066C57.6795 115.95 57.4457 115.747 57.2631 115.463C57.0805 115.18 56.9928 114.853 56.9928 114.49C56.9928 113.88 57.1754 113.415 57.5407 113.089C57.9059 112.755 58.4319 112.595 59.1039 112.595C59.3961 112.595 59.6591 112.631 59.8929 112.696H61.8287V112.704ZM57.3727 119.196C57.3727 119.501 57.4968 119.726 57.7525 119.879C58.0082 120.031 58.3734 120.111 58.8483 120.111C59.5568 120.111 60.0828 120.002 60.4261 119.792C60.7695 119.581 60.9448 119.298 60.9448 118.935C60.9448 118.637 60.8498 118.426 60.6672 118.303C60.4773 118.187 60.1266 118.129 59.608 118.129H58.5926C58.2054 118.129 57.9059 118.223 57.6941 118.405C57.4749 118.593 57.3727 118.855 57.3727 119.196ZM57.8329 114.49C57.8329 114.882 57.9424 115.173 58.1616 115.369C58.3807 115.565 58.6875 115.667 59.082 115.667C59.9075 115.667 60.3239 115.267 60.3239 114.468C60.3239 113.633 59.9075 113.212 59.0674 113.212C58.6729 113.212 58.3661 113.321 58.147 113.532C57.9351 113.749 57.8329 114.069 57.8329 114.49ZM70.0248 116.291C70.0248 116.945 69.7837 117.453 69.3089 117.816C68.8341 118.179 68.184 118.361 67.3731 118.361C66.4892 118.361 65.8099 118.245 65.335 118.02V117.184C65.6418 117.315 65.9779 117.417 66.3358 117.489C66.6938 117.562 67.0517 117.598 67.4096 117.598C67.9867 117.598 68.425 117.489 68.7172 117.272C69.0094 117.054 69.1555 116.749 69.1555 116.357C69.1555 116.102 69.1044 115.892 68.9948 115.725C68.8925 115.558 68.7172 115.405 68.4762 115.267C68.2351 115.129 67.8625 114.97 67.3658 114.795C66.6718 114.548 66.1751 114.258 65.8756 113.916C65.5834 113.575 65.43 113.139 65.43 112.595C65.43 112.021 65.6491 111.571 66.0801 111.229C66.5111 110.888 67.0809 110.721 67.7968 110.721C68.5346 110.721 69.2213 110.859 69.8422 111.128L69.5719 111.876C68.9583 111.622 68.3593 111.491 67.7749 111.491C67.3147 111.491 66.9567 111.593 66.7011 111.781C66.4454 111.977 66.3139 112.253 66.3139 112.595C66.3139 112.849 66.365 113.067 66.46 113.227C66.555 113.386 66.7157 113.539 66.9421 113.677C67.1686 113.815 67.5192 113.96 67.9794 114.127C68.7611 114.403 69.3016 114.701 69.5938 115.02C69.8787 115.369 70.0248 115.783 70.0248 116.291ZM73.7868 118.368C72.9614 118.368 72.3112 118.121 71.8291 117.62C71.3543 117.119 71.1132 116.422 71.1132 115.536C71.1132 114.643 71.3324 113.931 71.778 113.401C72.2236 112.871 72.8226 112.609 73.5677 112.609C74.269 112.609 74.8241 112.842 75.2332 113.299C75.6423 113.757 75.8468 114.359 75.8468 115.107V115.638H71.9971C72.0117 116.291 72.1798 116.785 72.4939 117.126C72.808 117.46 73.2536 117.635 73.8234 117.635C74.4224 117.635 75.0214 117.511 75.6058 117.257V118.005C75.3063 118.136 75.0214 118.223 74.7511 118.281C74.4808 118.339 74.1594 118.368 73.7868 118.368ZM73.5531 113.314C73.1075 113.314 72.7422 113.459 72.4793 113.749C72.2163 114.04 72.0556 114.447 72.0117 114.955H74.9337C74.9337 114.425 74.8168 114.018 74.5758 113.735C74.3347 113.452 73.9987 113.314 73.5531 113.314ZM78.1333 118.267H77.2859V110.373H78.1333V118.267ZM80.7777 118.267H79.9303V110.373H80.7777V118.267ZM84.9342 118.368C84.1087 118.368 83.4586 118.121 82.9764 117.62C82.5016 117.119 82.2606 116.422 82.2606 115.536C82.2606 114.643 82.4797 113.931 82.9253 113.401C83.3709 112.871 83.9699 112.609 84.715 112.609C85.4163 112.609 85.9715 112.842 86.3805 113.299C86.7896 113.757 86.9942 114.359 86.9942 115.107V115.638H83.1371C83.1518 116.291 83.3198 116.785 83.6339 117.126C83.948 117.46 84.3936 117.635 84.9634 117.635C85.5624 117.635 86.1614 117.511 86.7458 117.257V118.005C86.4463 118.136 86.1614 118.223 85.8911 118.281C85.6354 118.339 85.314 118.368 84.9342 118.368ZM84.7077 113.314C84.2621 113.314 83.8969 113.459 83.6339 113.749C83.3709 114.04 83.2102 114.447 83.1664 114.955H86.0883C86.0883 114.425 85.9715 114.018 85.7304 113.735C85.4893 113.452 85.146 113.314 84.7077 113.314ZM90.99 112.602C91.2383 112.602 91.4575 112.624 91.6547 112.66L91.5378 113.444C91.3041 113.394 91.0995 113.372 90.9242 113.372C90.4713 113.372 90.0841 113.553 89.7627 113.916C89.4413 114.28 89.2806 114.737 89.2806 115.282V118.267H88.4332V112.711H89.1345L89.2295 113.742H89.2733C89.4778 113.379 89.7335 113.103 90.0257 112.907C90.3179 112.704 90.6393 112.602 90.99 112.602ZM96.3079 116.749C96.3079 117.264 96.118 117.664 95.7235 117.947C95.3364 118.23 94.7885 118.368 94.0945 118.368C93.3568 118.368 92.7724 118.252 92.3633 118.02V117.235C92.6336 117.373 92.9184 117.475 93.2253 117.555C93.5321 117.635 93.8316 117.671 94.1165 117.671C94.5548 117.671 94.8981 117.598 95.1392 117.46C95.3802 117.315 95.4971 117.105 95.4971 116.814C95.4971 116.596 95.4021 116.415 95.2122 116.262C95.0223 116.11 94.657 115.921 94.1092 115.718C93.5905 115.521 93.218 115.354 92.9988 115.216C92.7797 115.071 92.619 114.904 92.5094 114.723C92.4071 114.541 92.3487 114.323 92.3487 114.069C92.3487 113.619 92.5313 113.256 92.9038 113.001C93.2764 112.74 93.7804 112.609 94.4306 112.609C95.0296 112.609 95.6213 112.733 96.1984 112.972L95.8989 113.655C95.3364 113.423 94.8323 113.314 94.3721 113.314C93.9704 113.314 93.6709 113.379 93.4663 113.503C93.2618 113.626 93.1595 113.8 93.1595 114.018C93.1595 114.171 93.196 114.294 93.2691 114.396C93.3494 114.497 93.4736 114.599 93.6416 114.694C93.8097 114.788 94.1384 114.926 94.6205 115.107C95.2853 115.347 95.7309 115.587 95.9646 115.834C96.1911 116.073 96.3079 116.378 96.3079 116.749ZM102.21 117.671C102.356 117.671 102.503 117.664 102.641 117.642C102.78 117.62 102.89 117.591 102.97 117.569V118.216C102.875 118.259 102.744 118.296 102.561 118.325C102.386 118.354 102.225 118.368 102.079 118.368C100.998 118.368 100.457 117.802 100.457 116.669V113.365H99.6536V112.958L100.457 112.609L100.815 111.426H101.305V112.711H102.926V113.365H101.305V116.633C101.305 116.967 101.385 117.221 101.546 117.402C101.714 117.584 101.933 117.671 102.21 117.671ZM107.923 118.267V114.672C107.923 114.222 107.821 113.88 107.609 113.655C107.404 113.43 107.075 113.321 106.637 113.321C106.045 113.321 105.622 113.481 105.344 113.8C105.074 114.12 104.942 114.635 104.942 115.362V118.267H104.095V110.373H104.942V112.762C104.942 113.045 104.928 113.285 104.899 113.473H104.95C105.118 113.205 105.351 112.994 105.658 112.842C105.965 112.689 106.316 112.609 106.71 112.609C107.397 112.609 107.908 112.769 108.244 113.096C108.588 113.415 108.763 113.931 108.763 114.635V118.259H107.923V118.267ZM112.876 118.368C112.05 118.368 111.393 118.121 110.918 117.62C110.443 117.119 110.202 116.422 110.202 115.536C110.202 114.643 110.421 113.931 110.867 113.401C111.312 112.871 111.911 112.609 112.656 112.609C113.358 112.609 113.913 112.842 114.322 113.299C114.731 113.757 114.936 114.359 114.936 115.107V115.638H111.086C111.1 116.291 111.268 116.785 111.583 117.126C111.897 117.46 112.342 117.635 112.912 117.635C113.511 117.635 114.11 117.511 114.694 117.257V118.005C114.395 118.136 114.11 118.223 113.84 118.281C113.577 118.339 113.255 118.368 112.876 118.368ZM112.649 113.314C112.196 113.314 111.838 113.459 111.575 113.749C111.312 114.04 111.152 114.447 111.108 114.955H114.03C114.03 114.425 113.913 114.018 113.672 113.735C113.431 113.452 113.087 113.314 112.649 113.314ZM123.95 113.009C123.95 113.757 123.694 114.338 123.175 114.744C122.664 115.144 121.926 115.347 120.969 115.347H120.093V118.259H119.224V110.845H121.159C123.015 110.852 123.95 111.571 123.95 113.009ZM120.085 114.606H120.867C121.634 114.606 122.189 114.483 122.533 114.236C122.876 113.989 123.051 113.59 123.051 113.052C123.051 112.566 122.891 112.195 122.569 111.956C122.248 111.716 121.744 111.593 121.057 111.593H120.085V114.606ZM130.21 115.478C130.21 116.386 129.984 117.09 129.523 117.606C129.063 118.114 128.428 118.368 127.624 118.368C127.127 118.368 126.682 118.252 126.295 118.02C125.908 117.787 125.608 117.453 125.396 117.017C125.184 116.582 125.082 116.073 125.082 115.485C125.082 114.577 125.309 113.873 125.769 113.372C126.222 112.863 126.857 112.609 127.668 112.609C128.45 112.609 129.071 112.871 129.531 113.386C129.984 113.902 130.21 114.599 130.21 115.478ZM125.951 115.478C125.951 116.19 126.09 116.727 126.382 117.105C126.675 117.482 127.091 117.664 127.646 117.664C128.201 117.664 128.618 117.482 128.903 117.112C129.195 116.741 129.334 116.197 129.334 115.485C129.334 114.781 129.187 114.243 128.903 113.88C128.618 113.51 128.194 113.328 127.631 113.328C127.076 113.328 126.66 113.51 126.375 113.873C126.097 114.222 125.951 114.766 125.951 115.478ZM136.266 118.267L135.243 115.006C135.177 114.81 135.061 114.352 134.878 113.648H134.834C134.695 114.236 134.578 114.694 134.476 115.02L133.424 118.274H132.445L130.919 112.718H131.803C132.161 114.113 132.438 115.18 132.621 115.906C132.811 116.64 132.92 117.126 132.949 117.381H132.993C133.03 117.184 133.088 116.938 133.169 116.633C133.256 116.328 133.329 116.081 133.388 115.899L134.41 112.711H135.331L136.332 115.899C136.522 116.48 136.653 116.967 136.719 117.366H136.763C136.777 117.243 136.814 117.054 136.872 116.8C136.931 116.545 137.289 115.18 137.939 112.704H138.815L137.267 118.259H136.266V118.267ZM142.198 118.368C141.372 118.368 140.722 118.121 140.24 117.62C139.765 117.119 139.524 116.422 139.524 115.536C139.524 114.643 139.743 113.931 140.189 113.401C140.634 112.871 141.233 112.609 141.978 112.609C142.68 112.609 143.235 112.842 143.644 113.299C144.053 113.757 144.257 114.359 144.257 115.107V115.638H140.408C140.422 116.291 140.59 116.785 140.905 117.126C141.219 117.46 141.664 117.635 142.234 117.635C142.833 117.635 143.432 117.511 144.016 117.257V118.005C143.717 118.136 143.432 118.223 143.162 118.281C142.891 118.339 142.57 118.368 142.198 118.368ZM141.964 113.314C141.511 113.314 141.153 113.459 140.89 113.749C140.627 114.04 140.466 114.447 140.422 114.955H143.344C143.344 114.425 143.228 114.018 142.986 113.735C142.745 113.452 142.409 113.314 141.964 113.314ZM148.246 112.602C148.494 112.602 148.714 112.624 148.911 112.66L148.794 113.444C148.56 113.394 148.356 113.372 148.18 113.372C147.727 113.372 147.34 113.553 147.019 113.916C146.697 114.28 146.537 114.737 146.537 115.282V118.267H145.689V112.711H146.391L146.486 113.742H146.529C146.734 113.379 146.99 113.103 147.282 112.907C147.574 112.704 147.903 112.602 148.246 112.602ZM154.484 117.671C154.631 117.671 154.777 117.664 154.915 117.642C155.054 117.62 155.164 117.591 155.244 117.569V118.216C155.149 118.259 155.018 118.296 154.835 118.325C154.66 118.354 154.499 118.368 154.353 118.368C153.272 118.368 152.731 117.802 152.731 116.669V113.365H151.928V112.958L152.731 112.609L153.089 111.426H153.579V112.711H155.2V113.365H153.579V116.633C153.579 116.967 153.659 117.221 153.82 117.402C153.988 117.584 154.207 117.671 154.484 117.671ZM161.19 115.478C161.19 116.386 160.964 117.09 160.504 117.606C160.043 118.114 159.408 118.368 158.604 118.368C158.108 118.368 157.662 118.252 157.275 118.02C156.888 117.787 156.588 117.453 156.376 117.017C156.165 116.582 156.062 116.073 156.062 115.485C156.062 114.577 156.289 113.873 156.749 113.372C157.202 112.863 157.837 112.609 158.648 112.609C159.43 112.609 160.051 112.871 160.511 113.386C160.964 113.902 161.19 114.599 161.19 115.478ZM156.932 115.478C156.932 116.19 157.078 116.727 157.363 117.105C157.647 117.475 158.071 117.664 158.619 117.664C159.174 117.664 159.591 117.482 159.875 117.112C160.168 116.741 160.306 116.197 160.306 115.485C160.306 114.781 160.16 114.243 159.875 113.88C159.591 113.51 159.167 113.328 158.604 113.328C158.049 113.328 157.633 113.51 157.348 113.873C157.078 114.222 156.932 114.766 156.932 115.478ZM167.823 118.267H166.954V111.622H164.594V110.852H170.183V111.622H167.823V118.267ZM173.733 112.602C173.981 112.602 174.208 112.624 174.405 112.66L174.288 113.444C174.054 113.394 173.85 113.372 173.674 113.372C173.222 113.372 172.834 113.553 172.513 113.916C172.192 114.28 172.031 114.737 172.031 115.282V118.267H171.183V112.711H171.885L171.98 113.742H172.024C172.228 113.379 172.484 113.103 172.776 112.907C173.061 112.704 173.382 112.602 173.733 112.602ZM178.883 118.267L178.715 117.475H178.671C178.393 117.824 178.116 118.063 177.831 118.187C177.553 118.31 177.21 118.368 176.794 118.368C176.238 118.368 175.807 118.223 175.486 117.94C175.172 117.657 175.019 117.25 175.019 116.727C175.019 115.609 175.924 115.02 177.729 114.962L178.678 114.933V114.585C178.678 114.149 178.583 113.829 178.393 113.619C178.204 113.408 177.904 113.306 177.488 113.306C177.02 113.306 176.494 113.444 175.91 113.735L175.647 113.089C175.924 112.943 176.224 112.82 176.553 112.74C176.881 112.653 177.21 112.609 177.539 112.609C178.204 112.609 178.7 112.755 179.014 113.052C179.336 113.343 179.496 113.815 179.496 114.468V118.259H178.883V118.267ZM176.969 117.671C177.495 117.671 177.911 117.526 178.211 117.243C178.51 116.952 178.664 116.553 178.664 116.037V115.536L177.816 115.572C177.144 115.594 176.655 115.703 176.355 115.885C176.063 116.066 175.91 116.357 175.91 116.741C175.91 117.046 176.005 117.279 176.187 117.439C176.377 117.591 176.64 117.671 176.969 117.671ZM185.063 117.519H185.019C184.625 118.085 184.04 118.368 183.266 118.368C182.535 118.368 181.966 118.121 181.556 117.62C181.155 117.126 180.95 116.415 180.95 115.5C180.95 114.585 181.155 113.873 181.564 113.365C181.973 112.856 182.543 112.602 183.266 112.602C184.026 112.602 184.603 112.878 185.012 113.423H185.077L185.041 113.023L185.019 112.631V110.373H185.866V118.267H185.18L185.063 117.519ZM183.368 117.664C183.945 117.664 184.362 117.511 184.625 117.199C184.888 116.887 185.019 116.378 185.019 115.681V115.507C185.019 114.723 184.888 114.156 184.625 113.822C184.362 113.481 183.945 113.314 183.368 113.314C182.871 113.314 182.492 113.503 182.229 113.895C181.966 114.28 181.834 114.817 181.834 115.514C181.834 116.226 181.966 116.763 182.229 117.119C182.492 117.475 182.864 117.664 183.368 117.664ZM190.03 118.368C189.205 118.368 188.555 118.121 188.072 117.62C187.598 117.119 187.357 116.422 187.357 115.536C187.357 114.643 187.576 113.931 188.021 113.401C188.467 112.871 189.066 112.609 189.811 112.609C190.512 112.609 191.067 112.842 191.477 113.299C191.886 113.757 192.09 114.359 192.09 115.107V115.638H188.24C188.255 116.291 188.423 116.785 188.737 117.126C189.051 117.46 189.497 117.635 190.067 117.635C190.666 117.635 191.265 117.511 191.849 117.257V118.005C191.55 118.136 191.265 118.223 190.994 118.281C190.724 118.339 190.403 118.368 190.03 118.368ZM189.796 113.314C189.344 113.314 188.986 113.459 188.723 113.749C188.46 114.04 188.299 114.447 188.255 114.955H191.177C191.177 114.425 191.06 114.018 190.819 113.735C190.578 113.452 190.242 113.314 189.796 113.314Z" fill="#666666"/>
</svg>
