<svg width="183" height="100" viewBox="0 0 183 100" fill="none" xmlns="http://www.w3.org/2000/svg">
<path d="M0 0H183V95C183 97.7614 180.761 100 178 100H5C2.23858 100 0 97.7614 0 95V0Z" fill="white"/>
<path d="M163 70.5207C163 70.5207 158.373 56.1648 139.599 54.8111L111.301 54.0501C111.301 54.0501 99.0403 46.0617 87.4446 45.1728C87.4446 45.1728 73.3979 42.2854 49.0977 49.7218C49.0977 49.7218 92.9069 40.7806 107.846 57.5708C107.846 57.565 153.832 52.2549 163 70.5207Z" fill="#9DA2B8"/>
<path d="M117.096 51.8249C117.096 51.8249 95.9177 36.342 67.1531 39.3689C67.1531 39.3689 52.7738 40.3972 37.8341 46.2766C37.8341 46.2766 25.9058 52.7138 20 49.6056C20 49.6056 20.2218 53.6027 28.5844 51.8249C28.5844 51.8249 54.7813 43.9469 65.4841 43.058C65.4841 43.058 93.4433 38.968 108.937 51.7552L117.096 51.8249Z" fill="#1763EA"/>
<path d="M43.8096 31.7002C43.8096 31.7002 50.4974 13.7307 72.0898 13.2485C72.0898 13.2485 84.7943 13.2485 89.1653 21.4867C89.1653 21.4867 83.5688 13.8005 71.8739 14.8288C71.8739 14.8288 53.6662 14.7126 46.068 32.0024L43.8096 31.7002Z" fill="#1763EA"/>
<path d="M59.3271 14.393C59.3271 14.393 77.9024 4.01679 93.875 19.5578C93.875 19.5578 101.742 26.239 99.0105 42.0241L92.5678 40.6646C92.5678 40.6646 97.4115 30.3988 90.712 20.3886C90.7178 20.3944 82.6644 6.99718 59.3271 14.393Z" fill="#9DA2B8"/>
<path d="M51.4077 27.2788C51.4077 27.2788 48.6123 30.9331 48.1396 32.2868L53.8003 33.5998L51.0575 32.2868L53.7537 29.0275L51.4077 27.2788Z" fill="#1763EA"/>
<path d="M60.1211 20.2606C60.1211 20.2606 66.5405 17.408 67.7076 17.6637L67.3166 23.6767C67.3166 23.6767 64.8131 23.119 62.0527 24.3391L60.1211 20.2606Z" fill="#1763EA"/>
<path d="M69.1436 17.1759L69.6454 23.4388L72.149 23.7758L76.5025 17.0365C76.5083 17.0365 73.001 16.1476 69.1436 17.1759Z" fill="#1763EA"/>
<path d="M78.9125 17.3096C78.9125 17.3096 75.4635 24.351 74.6523 24.6589C74.6523 24.6589 77.6928 26.2507 77.5994 26.9072L84.3631 19.4301C84.3689 19.4359 81.3168 17.5884 78.9125 17.3096Z" fill="#1763EA"/>
<path d="M78.6025 27.7901L85.623 20.0806C85.623 20.0806 89.5446 23.6419 89.5563 24.9433L80.1724 29.8351L78.6025 27.7901Z" fill="#1763EA"/>
<path d="M80.7157 31.2409L90.3681 26.2388C90.3681 26.2388 92.7083 31.3107 90.6657 38.5786L73.2051 36.2199L80.8733 35.2671C80.8675 35.2671 81.2526 34.0761 80.7157 31.2409Z" fill="#1763EA"/>
<path d="M63.6748 34.9362L76.0175 20.6152L65.1162 36.6501L63.6748 34.9362Z" fill="#9DA2B8"/>
<path d="M65.992 35.4708C66.9549 35.4708 67.7369 34.6923 67.7369 33.7337C67.7369 32.7751 66.9549 31.9966 65.992 31.9966C65.0291 31.9966 64.2471 32.7751 64.2471 33.7337C64.2471 34.6923 65.0232 35.4708 65.992 35.4708Z" fill="#9DA2B8"/>
<path d="M52.499 26.2853L54.9034 28.3245C54.9034 28.3245 58.825 25.1931 60.5407 24.891L58.4399 21.3296C58.4457 21.3296 53.9638 23.851 52.499 26.2853Z" fill="#1763EA"/>
<path d="M35.891 76.7448C35.9727 76.7216 36.0485 76.6983 36.1244 76.6809C36.2061 76.6576 36.2819 76.646 36.352 76.6518C36.422 76.6518 36.4862 76.6693 36.5446 76.6983C36.6029 76.7332 36.6554 76.7855 36.7021 76.861C36.7196 76.9772 36.7255 77.0701 36.7138 77.1457C36.708 77.2154 36.6846 77.2851 36.6496 77.3432C36.6204 77.4013 36.5737 77.4594 36.5154 77.5117C36.457 77.564 36.3928 77.6221 36.3228 77.6976C36.1244 77.8951 35.8851 78.0636 35.6108 78.203C35.3424 78.3367 35.0564 78.447 34.7588 78.5342C34.4612 78.6155 34.1694 78.6794 33.8776 78.7143C33.5858 78.755 33.3232 78.7724 33.0956 78.7724C32.3836 78.7724 31.7534 78.6852 31.2048 78.5051C30.6621 78.325 30.2069 78.0636 29.8392 77.7266C29.4716 77.3839 29.1973 76.9656 29.0047 76.4775C28.818 75.9837 28.7246 75.426 28.7246 74.7985C28.7246 73.9736 28.8413 73.259 29.0806 72.6664C29.314 72.068 29.6408 71.5741 30.0552 71.1965C30.4753 70.8131 30.9714 70.5284 31.5375 70.3425C32.1094 70.1566 32.728 70.0694 33.3932 70.0694C33.8659 70.0694 34.3095 70.1043 34.7238 70.1798C35.1323 70.2553 35.5175 70.3773 35.8676 70.5516C35.9727 70.5981 36.0777 70.6736 36.1886 70.7898C36.3053 70.906 36.4103 71.0396 36.5037 71.2023C36.6029 71.3592 36.6846 71.5335 36.7546 71.7194C36.8247 71.9053 36.8714 72.097 36.8947 72.2829C36.9122 72.4746 36.9005 72.6606 36.8597 72.8348C36.813 73.0091 36.7255 73.166 36.5971 73.3054L35.2724 72.8755C35.2315 72.7128 35.1907 72.5676 35.1381 72.434C35.0914 72.3062 35.0389 72.1842 34.9747 72.0854C34.9164 71.9808 34.8405 71.8879 34.7588 71.8065C34.6771 71.7252 34.5779 71.6439 34.4612 71.5741C34.3561 71.5044 34.2219 71.4638 34.0702 71.4347C33.9243 71.4115 33.7434 71.394 33.5275 71.3882C33.1715 71.3824 32.8155 71.4463 32.4595 71.5799C32.1094 71.7078 31.7884 71.9227 31.5083 72.2132C31.2223 72.4979 30.9947 72.8697 30.8197 73.3229C30.6446 73.776 30.557 74.3221 30.557 74.9612C30.557 75.426 30.6271 75.8327 30.773 76.1813C30.9189 76.5298 31.1114 76.8203 31.3507 77.0527C31.59 77.2851 31.8643 77.4536 32.1619 77.5582C32.4653 77.6627 32.7746 77.715 33.0956 77.7034C33.3757 77.6976 33.6208 77.6744 33.8251 77.6395C34.0352 77.6046 34.2219 77.5582 34.3853 77.5059C34.5487 77.4478 34.6946 77.3897 34.823 77.3258C34.9514 77.2619 35.0681 77.198 35.1848 77.1282C35.3015 77.0585 35.4124 76.9946 35.5175 76.9307C35.6458 76.8552 35.7626 76.7971 35.891 76.7448ZM46.0977 71.9343C46.2203 71.9576 46.3312 72.0157 46.4304 72.1028C46.5296 72.19 46.6171 72.2945 46.693 72.4224C46.7747 72.5502 46.8389 72.6954 46.8972 72.8581C46.9556 73.0208 46.9964 73.1892 47.0373 73.3577C47.0723 73.5262 47.1015 73.7005 47.119 73.8748C47.1365 74.0491 47.1482 74.2118 47.154 74.3686C47.1598 74.7695 47.1248 75.1587 47.049 75.5364C46.9731 75.9082 46.8564 76.2626 46.6871 76.5879C46.5237 76.9191 46.3137 77.2212 46.051 77.4943C45.7943 77.7673 45.485 78.0055 45.1232 78.203C44.7613 78.4006 44.347 78.5516 43.8801 78.662C43.4074 78.7724 42.8822 78.8305 42.2928 78.8305C41.6509 78.8305 41.0731 78.7317 40.5654 78.5284C40.0519 78.325 39.62 78.0404 39.264 77.6685C38.908 77.2967 38.6396 76.8552 38.4529 76.3381C38.2661 75.8211 38.1727 75.2401 38.1786 74.6068C38.1786 74.0491 38.2369 73.5436 38.3595 73.0963C38.482 72.6489 38.6513 72.2539 38.8614 71.9111C39.0715 71.5625 39.3224 71.272 39.6142 71.0222C39.906 70.7782 40.2269 70.5749 40.5712 70.4238C40.9156 70.267 41.2832 70.1508 41.6684 70.0752C42.0535 69.9997 42.4504 69.9648 42.8472 69.9648C43.2324 69.9648 43.6 69.9997 43.9618 70.0694C44.3237 70.1391 44.6563 70.2437 44.9714 70.3831C45.2924 70.5226 45.5784 70.7027 45.841 70.9176C46.0977 71.1326 46.3195 71.3824 46.5062 71.6729L46.0977 71.9343ZM45.3858 74.1537C45.3799 73.9561 45.3624 73.776 45.3391 73.6134C45.3216 73.4449 45.2982 73.2938 45.2749 73.1602C45.2574 73.0266 45.234 72.9046 45.2224 72.7942C45.2049 72.6838 45.2049 72.585 45.2107 72.4979L45.0823 72.5734C44.9831 72.3817 44.8605 72.2016 44.7205 72.0447C44.5863 71.8821 44.4287 71.7426 44.2478 71.6264C44.0669 71.5102 43.8626 71.4231 43.635 71.3592C43.4074 71.2953 43.1565 71.2604 42.8822 71.2604C42.6605 71.2604 42.4387 71.2895 42.2111 71.3417C41.9893 71.3998 41.7676 71.487 41.5517 71.609C41.3416 71.731 41.1432 71.8821 40.9506 72.068C40.758 72.2539 40.6004 72.4805 40.4604 72.7477C40.3261 73.0091 40.2153 73.3112 40.1336 73.6598C40.0519 74.0026 40.011 74.386 40.011 74.816C40.011 75.3156 40.081 75.7455 40.2269 76.1173C40.3728 76.4834 40.5596 76.7855 40.7872 77.0295C41.0206 77.2735 41.2774 77.4536 41.5633 77.5756C41.8551 77.6976 42.1411 77.7557 42.4329 77.7557C42.8414 77.7557 43.2032 77.7034 43.5125 77.5872C43.8218 77.4768 44.0902 77.3258 44.3062 77.1399C44.5279 76.9539 44.7088 76.739 44.8489 76.495C44.9948 76.251 45.1057 75.9895 45.1815 75.7281C45.2632 75.4608 45.3157 75.1878 45.3449 74.9205C45.3858 74.6533 45.3974 74.3977 45.3858 74.1537ZM52.202 76.9249C52.0444 76.6635 51.8752 76.3614 51.6943 76.0128C51.5133 75.6642 51.3266 75.2924 51.1399 74.9031C50.9473 74.5081 50.7547 74.1072 50.5621 73.6947C50.3695 73.2822 50.1769 72.8813 49.996 72.4863C49.9785 72.9278 49.961 73.3926 49.9435 73.869C49.9318 74.3396 49.9202 74.8043 49.9085 75.2633C49.9027 75.7165 49.891 76.1464 49.8852 76.5531C49.8793 76.9598 49.8793 77.3141 49.8735 77.6163C49.8735 77.9242 49.8735 78.1682 49.8735 78.3483C49.8735 78.5284 49.8793 78.6155 49.8852 78.6155L48.648 78.5749C48.6305 78.3831 48.6188 78.1217 48.6071 77.7964C48.6013 77.4652 48.5954 77.0818 48.6013 76.646C48.6071 76.2103 48.613 75.7397 48.6305 75.2343C48.648 74.723 48.6772 74.2001 48.7063 73.654C48.7355 73.1079 48.7822 72.556 48.8347 71.9982C48.8872 71.4405 48.9456 70.8944 49.0215 70.3599C49.1265 70.389 49.2432 70.4006 49.3658 70.389C49.4942 70.3773 49.6225 70.3599 49.7626 70.3425C49.9027 70.3192 50.0427 70.296 50.1769 70.2786C50.317 70.2553 50.4454 70.2437 50.5679 70.2495C50.6905 70.2553 50.7955 70.2786 50.8831 70.325C50.9764 70.3657 51.0523 70.447 51.1107 70.5516C51.1399 70.6097 51.1924 70.7259 51.2741 70.9118C51.3558 71.0919 51.4608 71.3127 51.5775 71.5799C51.7001 71.8472 51.8343 72.1435 51.986 72.4805C52.1436 72.8116 52.307 73.1544 52.4762 73.503C52.6455 73.8574 52.8206 74.2118 53.0015 74.5661C53.1824 74.9264 53.3574 75.2633 53.5325 75.577C53.7251 75.2168 53.9352 74.8334 54.1686 74.4267C54.4021 74.0142 54.6472 73.5785 54.9156 73.1253C55.184 72.6722 55.4758 72.2074 55.791 71.7252C56.1061 71.243 56.4387 70.7492 56.7947 70.2495C56.7947 70.2495 56.8006 70.2495 56.8064 70.2553C56.9173 70.2786 57.0398 70.2844 57.1682 70.2728C57.3024 70.2553 57.4308 70.2379 57.5592 70.2205C57.6934 70.1972 57.816 70.174 57.9327 70.1566C58.0553 70.1333 58.1603 70.1217 58.2478 70.1275C58.3412 70.1333 58.4112 70.1566 58.4638 70.1914C58.5221 70.2321 58.5455 70.3018 58.5455 70.4006C58.5455 71.702 58.5513 72.8929 58.563 73.9736C58.5688 74.2815 58.5688 74.5894 58.5688 74.9031C58.5746 75.211 58.5746 75.5131 58.5805 75.8094C58.5863 76.0999 58.5863 76.3788 58.5921 76.646C58.598 76.9133 58.6038 77.1573 58.6097 77.3722C58.6155 77.5872 58.6213 77.7731 58.6272 77.9358C58.633 78.0927 58.6447 78.2147 58.6505 78.3018C58.6563 78.3599 58.6388 78.4122 58.598 78.4703C58.563 78.5226 58.5104 78.569 58.4462 78.6097C58.3821 78.6504 58.3062 78.6852 58.2187 78.7085C58.137 78.7375 58.0494 78.7491 57.9619 78.7491C57.7168 78.7491 57.5125 78.7201 57.355 78.662C57.2032 78.6039 57.0865 78.5226 56.9931 78.4064C56.9114 78.2902 56.8531 78.1507 56.8239 77.9823C56.7947 77.8138 56.7831 77.6104 56.7889 77.3839V72.5327C56.5496 72.9336 56.3162 73.3345 56.0828 73.7295C55.8552 74.1246 55.6392 74.508 55.4292 74.8683C55.2249 75.2285 55.0382 75.5654 54.8631 75.8791C54.688 76.1871 54.5363 76.4601 54.4021 76.6925C54.2678 76.9249 54.1628 77.105 54.0869 77.2444C54.0111 77.3781 53.9644 77.4536 53.9527 77.4652C53.8185 77.5814 53.6843 77.6685 53.5384 77.7266C53.3925 77.7847 53.2582 77.8138 53.1357 77.8138C53.0131 77.8138 52.9139 77.7905 52.8264 77.7441C52.7389 77.6976 52.6572 77.6337 52.5871 77.5465C52.5171 77.4652 52.4471 77.3664 52.3887 77.2619C52.3245 77.1573 52.2662 77.0411 52.202 76.9249ZM60.2437 75.1471L60.6638 75.1878L60.658 70.4354L60.6697 70.4412L60.658 70.4238C60.7397 70.418 60.8681 70.4006 61.0373 70.3831C61.2066 70.3599 61.4108 70.3367 61.6443 70.3134C61.8777 70.2902 62.1403 70.2669 62.4321 70.2553C62.7239 70.2379 63.0332 70.2263 63.3658 70.2263C63.751 70.2263 64.1303 70.2379 64.498 70.2669C64.8714 70.296 65.2158 70.3483 65.5426 70.4296C65.8752 70.511 66.1787 70.6213 66.4529 70.7608C66.7331 70.9002 66.9723 71.0861 67.1766 71.3127C67.3808 71.5393 67.5384 71.8123 67.6551 72.1377C67.7718 72.4572 67.8302 72.8407 67.8419 73.2822C67.8535 73.8283 67.7602 74.2931 67.5617 74.6765C67.3633 75.06 67.0715 75.3795 66.6805 75.6235C66.2954 75.8675 65.8285 76.0534 65.2683 76.1638C64.708 76.28 64.0778 76.3381 63.3658 76.3381C63.2199 76.3381 63.0682 76.3381 62.9048 76.3323C62.7472 76.3265 62.5838 76.3149 62.4263 76.2974C62.4321 76.5705 62.4379 76.8319 62.4438 77.0701C62.4496 77.3141 62.4613 77.5349 62.4671 77.7324C62.4729 77.93 62.4846 78.1043 62.4904 78.2495C62.4963 78.3948 62.508 78.4993 62.5196 78.569L60.6697 78.633L60.6638 76.0709L60.2262 76.0186L60.2437 75.1471ZM62.9456 71.4405C62.7355 71.4405 62.5371 71.4463 62.3504 71.4579C62.3504 71.6787 62.3504 71.9285 62.3562 72.219C62.3621 72.5095 62.3621 72.8232 62.3621 73.1544C62.3679 73.4855 62.3679 73.8283 62.3737 74.1885C62.3796 74.5487 62.3912 74.9031 62.3971 75.2575C62.5255 75.2633 62.6655 75.2691 62.8231 75.2749C62.9807 75.2749 63.1557 75.2749 63.3483 75.2749C63.6693 75.2749 63.9844 75.2401 64.2995 75.182C64.6205 75.1181 64.9065 75.0135 65.1574 74.8683C65.4142 74.7172 65.6184 74.5197 65.776 74.2815C65.9336 74.0375 66.0153 73.7354 66.0211 73.3752C66.0269 73.0614 65.9861 72.8 65.8985 72.585C65.8168 72.3643 65.706 72.1842 65.5659 72.0447C65.42 71.8995 65.2508 71.7891 65.0582 71.7136C64.8598 71.6322 64.6497 71.5741 64.4163 71.5335C64.1887 71.4928 63.9494 71.4696 63.6985 71.4638C63.4475 71.4463 63.1966 71.4405 62.9456 71.4405ZM75.726 77.837C75.8369 78.1043 75.8486 78.3076 75.7493 78.4529C75.656 78.5923 75.4634 78.6678 75.1774 78.6852C74.9323 78.6969 74.7281 78.6969 74.553 78.6794C74.3838 78.6678 74.2495 78.6504 74.1387 78.6213C74.0336 78.5981 73.9519 78.5749 73.8994 78.5516C73.8527 78.5226 73.8235 78.5051 73.8235 78.4935C73.7243 78.3018 73.6193 78.0636 73.5084 77.7905C73.4034 77.5117 73.2867 77.2096 73.1758 76.8842C72.9482 76.8842 72.6972 76.8842 72.4288 76.8842C72.1603 76.8842 71.8802 76.8842 71.5768 76.8842C71.2791 76.8842 70.9757 76.8842 70.6664 76.8842C70.3571 76.8784 70.0478 76.8784 69.7443 76.8784C69.6159 77.2212 69.4992 77.5465 69.3825 77.8603C69.2658 78.174 69.1724 78.4645 69.0907 78.7259L67.4742 78.5226C67.5267 78.3889 67.5851 78.2379 67.661 78.0636C67.7193 77.9184 67.7893 77.7441 67.871 77.5407C67.9527 77.3374 68.0461 77.1108 68.1512 76.8668H67.7718C67.7193 76.8668 67.6726 76.8668 67.6259 76.861L67.766 75.9837C67.8302 75.9837 67.9236 75.9837 68.0519 75.9837C68.1862 75.9837 68.3379 75.9837 68.5071 75.9895C68.6822 75.5596 68.869 75.1123 69.0557 74.6475C69.2483 74.1769 69.435 73.7237 69.6159 73.2764C69.7968 72.829 69.9719 72.4107 70.1353 72.0215C70.3046 71.6264 70.4505 71.2837 70.573 70.999L70.147 70.9525L70.3337 70.1275C70.3571 70.1333 70.3921 70.1391 70.4388 70.1449C70.4913 70.1508 70.5497 70.1624 70.6139 70.174C70.6839 70.1798 70.7539 70.1914 70.8298 70.203C70.9115 70.2089 70.9874 70.2147 71.0574 70.2205C71.1741 70.2263 71.2966 70.2147 71.425 70.1972C71.5593 70.174 71.6876 70.1449 71.816 70.1217C71.9444 70.0927 72.067 70.0694 72.1954 70.052C72.3237 70.0346 72.4405 70.0287 72.5397 70.0404C72.6447 70.052 72.7323 70.0868 72.8139 70.1449C72.8957 70.203 72.9598 70.3018 73.0065 70.4296C73.0474 70.5632 73.1116 70.7724 73.2049 71.0629C73.2983 71.3476 73.4092 71.6903 73.5376 72.0796C73.6718 72.4688 73.8177 72.8988 73.9811 73.3693C74.1503 73.8399 74.3254 74.3221 74.5122 74.8276C74.6989 75.333 74.8973 75.8443 75.0957 76.3614C75.3058 76.8668 75.5159 77.3606 75.726 77.837ZM70.077 76.0012C70.3221 76.0012 70.5672 76.0012 70.8123 76.007C71.0632 76.007 71.3083 76.007 71.5476 76.0128C71.7869 76.0128 72.0203 76.0128 72.242 76.0186C72.4696 76.0186 72.6797 76.0186 72.8781 76.0186C72.7731 75.7165 72.6739 75.4144 72.5805 75.1065C72.4871 74.7985 72.3938 74.4964 72.3062 74.2118C72.2187 73.9213 72.137 73.6482 72.067 73.3984C71.9969 73.1428 71.9327 72.9104 71.8744 72.707C71.8219 72.5037 71.781 72.3352 71.746 72.2016C71.7168 72.068 71.6993 71.975 71.6993 71.9343C71.5301 72.3352 71.3608 72.7593 71.1799 73.2067C71.0224 73.5901 70.8531 74.0258 70.6605 74.5139C70.468 74.9961 70.2754 75.4899 70.077 76.0012ZM76.4963 75.1471L76.9165 75.1878L76.9107 70.4354L76.9223 70.4412L76.9107 70.4238C76.9924 70.418 77.1208 70.4006 77.29 70.3831C77.4592 70.3599 77.6635 70.3367 77.8969 70.3134C78.1303 70.2902 78.393 70.2669 78.6847 70.2553C78.9765 70.2379 79.2858 70.2263 79.6185 70.2263C80.0036 70.2263 80.383 70.2379 80.7506 70.2669C81.1241 70.296 81.4684 70.3483 81.7952 70.4296C82.1279 70.511 82.4313 70.6213 82.7056 70.7608C82.9857 70.9002 83.225 71.0861 83.4292 71.3127C83.6335 71.5393 83.7911 71.8123 83.9078 72.1377C84.0245 72.4572 84.0828 72.8407 84.0945 73.2822C84.1004 73.6424 84.0653 73.9677 83.9778 74.2582C83.8961 74.5487 83.7677 74.8043 83.5926 75.0309C83.4234 75.2517 83.2133 75.4492 82.9565 75.6119C82.6998 75.7746 82.408 75.9082 82.0812 76.0186C82.3029 76.3555 82.548 76.6867 82.8165 77.0179C83.0849 77.349 83.3826 77.6569 83.7094 77.9474C83.8553 78.1449 83.9019 78.3192 83.8494 78.4645C83.7911 78.6097 83.6452 78.7085 83.4059 78.7608C83.2016 78.8131 83.0266 78.8479 82.8865 78.8595C82.7406 78.877 82.6239 78.8828 82.5305 78.877C82.4372 78.877 82.3613 78.8712 82.3146 78.8537C82.2679 78.8421 82.2387 78.8305 82.2271 78.8247C82.0695 78.7259 81.9119 78.5807 81.7544 78.3889C81.5968 78.1972 81.4392 77.9881 81.2817 77.7499C81.1241 77.5175 80.9782 77.2735 80.8323 77.0237C80.6864 76.768 80.5522 76.5298 80.4296 76.3091C80.3013 76.3149 80.1729 76.3207 80.0328 76.3265C79.8986 76.3323 79.7585 76.3323 79.6185 76.3323C79.4726 76.3323 79.3209 76.3323 79.1574 76.3265C78.9999 76.3207 78.8365 76.3091 78.6789 76.2916C78.6847 76.5647 78.6906 76.8261 78.6964 77.0643C78.7023 77.3025 78.7139 77.5291 78.7198 77.7266C78.7256 77.9242 78.7373 78.0985 78.7431 78.2437C78.7489 78.3889 78.7606 78.4935 78.7723 78.5632L76.9223 78.6271L76.9165 76.0651L76.4788 76.0128L76.4963 75.1471ZM79.1983 71.4405C78.9882 71.4405 78.7898 71.4463 78.603 71.4579C78.603 71.6787 78.603 71.9285 78.6089 72.219C78.6147 72.5095 78.6147 72.8232 78.6147 73.1544C78.6206 73.4855 78.6206 73.8283 78.6264 74.1885C78.6322 74.5487 78.6439 74.9031 78.6497 75.2575C78.7781 75.2633 78.9182 75.2691 79.0757 75.2749C79.2333 75.2749 79.4084 75.2749 79.601 75.2749C79.9219 75.2749 80.2371 75.2401 80.5522 75.182C80.8732 75.1181 81.1591 75.0135 81.4101 74.8683C81.6668 74.7172 81.8711 74.5197 82.0287 74.2815C82.1862 74.0375 82.2679 73.7354 82.2738 73.3752C82.2796 73.0614 82.2387 72.8 82.1512 72.585C82.0695 72.3643 81.9586 72.1842 81.8186 72.0447C81.6727 71.8995 81.5034 71.7891 81.3108 71.7136C81.1183 71.6322 80.9023 71.5741 80.6689 71.5335C80.4413 71.4928 80.2021 71.4696 79.9511 71.4638C79.7002 71.4463 79.4492 71.4405 79.1983 71.4405ZM86.9482 78.5981V78.5923C86.7031 78.5923 86.4989 78.5691 86.3413 78.5168C86.1896 78.4645 86.0728 78.3889 85.9795 78.2786C85.8978 78.174 85.8394 78.0346 85.8102 77.8719C85.7811 77.7034 85.7694 77.5117 85.7694 77.2909L85.7986 71.1152L85.3492 71.1268L85.3667 70.2611C85.5068 70.2553 85.641 70.2553 85.7752 70.2553C85.8919 70.2553 86.0087 70.2553 86.1312 70.2553C86.2596 70.2553 86.3705 70.2553 86.4697 70.2495H86.6856C86.8373 70.2495 87.0533 70.2495 87.3451 70.2437C87.6368 70.2379 87.9578 70.2379 88.3138 70.2321C88.6698 70.2263 89.0374 70.2205 89.4284 70.2147C89.8136 70.2089 90.1812 70.1972 90.5256 70.1914C90.8699 70.1856 91.1733 70.174 91.4359 70.1682C91.7044 70.1566 91.897 70.1449 92.0078 70.1333C92.0545 70.1333 92.1012 70.1508 92.1479 70.1798C92.1946 70.2147 92.2354 70.2553 92.2705 70.3134C92.3055 70.3715 92.3346 70.4354 92.3522 70.5051C92.3755 70.5749 92.3872 70.6504 92.3872 70.7201C92.3872 70.9176 92.3638 71.0803 92.323 71.2023C92.2763 71.3243 92.2121 71.4173 92.1246 71.4812C92.0429 71.5509 91.932 71.5916 91.8036 71.6206C91.6752 71.6439 91.5176 71.6555 91.3426 71.6497H87.5493C87.5493 71.7949 87.5493 71.946 87.5493 72.097C87.5493 72.2481 87.5493 72.4107 87.5493 72.5792C87.5493 72.7477 87.5493 72.9278 87.5493 73.1195C87.5551 73.3112 87.5551 73.5204 87.5551 73.7528C87.7711 73.7528 87.9987 73.7528 88.2321 73.7528C88.4714 73.7528 88.7106 73.7528 88.9499 73.7528C89.1892 73.747 89.4226 73.747 89.6443 73.7412C89.8719 73.7354 90.0762 73.7354 90.2688 73.7295C90.4614 73.7237 90.6248 73.7237 90.7648 73.7179C90.9107 73.7121 91.0158 73.7063 91.08 73.7005C91.1208 73.7005 91.1617 73.7179 91.2025 73.747C91.2434 73.776 91.2784 73.8109 91.3017 73.8574C91.3367 73.9038 91.3601 73.9561 91.3717 74.02C91.3892 74.0781 91.4009 74.142 91.4009 74.2001C91.4009 74.3628 91.3834 74.4906 91.3484 74.5894C91.3134 74.6823 91.2609 74.7579 91.185 74.8102C91.115 74.8566 91.0274 74.8857 90.9224 74.8973C90.8173 74.9089 90.689 74.9147 90.5431 74.9147L87.5551 74.9031C87.561 75.333 87.561 75.7455 87.5668 76.1348C87.5726 76.5298 87.5785 76.8784 87.5843 77.1921C87.7536 77.1921 87.9636 77.1921 88.2087 77.1921C88.4538 77.1921 88.7223 77.1921 88.9966 77.1921C89.2825 77.1863 89.5685 77.1863 89.8603 77.1863C90.1521 77.1805 90.4263 77.1805 90.6773 77.1747C90.9341 77.1689 91.1675 77.1689 91.3717 77.1631C91.5818 77.1573 91.7394 77.1457 91.8444 77.1399C91.8911 77.134 91.9378 77.1515 91.9845 77.1805C92.0312 77.2154 92.072 77.2561 92.1129 77.3083C92.1479 77.3606 92.1771 77.4187 92.1946 77.4884C92.2121 77.5582 92.2238 77.6279 92.2238 77.6976C92.2238 77.8951 92.2004 78.0578 92.1596 78.1798C92.1187 78.3018 92.0545 78.4006 91.967 78.4645C91.8795 78.5342 91.7686 78.5749 91.6402 78.6039C91.5118 78.6271 91.3601 78.6388 91.1792 78.633L86.9482 78.5981Z" fill="#366FE0"/>
<path d="M100.493 76.9252C100.335 76.6638 100.166 76.3617 99.985 76.0131C99.8041 75.6645 99.6174 75.2927 99.4306 74.9035C99.2381 74.5084 99.0455 74.1075 98.8529 73.695C98.6603 73.2825 98.4677 72.8817 98.2868 72.4866C98.2693 72.9281 98.246 73.3929 98.2343 73.8693C98.2226 74.3399 98.211 74.8047 98.1993 75.2637C98.1934 75.7168 98.1818 76.1467 98.1759 76.5534C98.1701 76.9601 98.1701 77.3145 98.1643 77.6166C98.1643 77.9245 98.1643 78.1685 98.1643 78.3486C98.1643 78.5287 98.1701 78.6159 98.1759 78.6159L96.9388 78.5752C96.9212 78.3835 96.9096 78.122 96.8979 77.7967C96.8921 77.4655 96.8862 77.0821 96.8921 76.6464C96.8979 76.2106 96.9037 75.7401 96.9212 75.2346C96.9388 74.7234 96.9679 74.2005 96.9971 73.6544C97.0263 73.1083 97.073 72.5563 97.1255 71.9986C97.178 71.4409 97.2364 70.8947 97.3122 70.3602C97.4173 70.3893 97.534 70.4009 97.6566 70.3893C97.7849 70.3777 97.9192 70.3602 98.0534 70.3428C98.1934 70.3196 98.3335 70.2963 98.4677 70.2789C98.6078 70.2557 98.7362 70.2441 98.8587 70.2499C98.9813 70.2557 99.0863 70.2789 99.1739 70.3254C99.2672 70.3661 99.3431 70.4474 99.4015 70.552C99.4306 70.6101 99.4832 70.7263 99.5649 70.9122C99.6466 71.0923 99.7516 71.313 99.8683 71.5803C99.985 71.8475 100.125 72.1438 100.277 72.4808C100.434 72.812 100.598 73.1547 100.767 73.5033C100.936 73.8577 101.117 74.2121 101.292 74.5665C101.473 74.9267 101.648 75.2637 101.823 75.5774C102.016 75.2172 102.226 74.8337 102.459 74.4271C102.693 74.0146 102.938 73.5788 103.206 73.1257C103.475 72.6725 103.767 72.2077 104.082 71.7255C104.397 71.2433 104.73 70.7495 105.086 70.2499C105.086 70.2499 105.091 70.2499 105.097 70.2557C105.208 70.2789 105.331 70.2847 105.459 70.2731C105.593 70.2557 105.722 70.2382 105.85 70.2208C105.984 70.1976 106.107 70.1743 106.223 70.1569C106.346 70.1337 106.451 70.122 106.539 70.1279C106.632 70.1337 106.702 70.1569 106.755 70.1918C106.813 70.2324 106.836 70.3022 106.836 70.4009C106.836 71.7023 106.842 72.8933 106.854 73.9739C106.86 74.2818 106.86 74.5897 106.86 74.9035C106.865 75.2114 106.865 75.5135 106.871 75.8098C106.877 76.1003 106.877 76.3791 106.883 76.6464C106.889 76.9136 106.895 77.1576 106.9 77.3726C106.906 77.5876 106.912 77.7735 106.918 77.9361C106.924 78.093 106.935 78.215 106.941 78.3021C106.947 78.3602 106.93 78.4125 106.889 78.4706C106.854 78.5229 106.801 78.5694 106.737 78.6101C106.673 78.6507 106.597 78.6856 106.509 78.7088C106.428 78.7379 106.34 78.7495 106.253 78.7495C106.008 78.7495 105.803 78.7205 105.646 78.6624C105.494 78.6043 105.371 78.5229 105.284 78.4067C105.202 78.2905 105.144 78.1511 105.115 77.9826C105.086 77.8141 105.074 77.6108 105.08 77.3842V72.5331C104.84 72.934 104.607 73.3348 104.374 73.7299C104.146 74.125 103.93 74.5084 103.72 74.8686C103.516 75.2288 103.329 75.5658 103.154 75.8795C102.979 76.1874 102.827 76.4605 102.693 76.6929C102.559 76.9252 102.454 77.1053 102.378 77.2448C102.302 77.3784 102.255 77.4539 102.243 77.4655C102.109 77.5817 101.975 77.6689 101.829 77.727C101.683 77.7851 101.555 77.8141 101.426 77.8141C101.304 77.8141 101.205 77.7909 101.117 77.7444C101.03 77.6979 100.948 77.634 100.878 77.5469C100.808 77.4655 100.738 77.3668 100.679 77.2622C100.615 77.1576 100.557 77.0414 100.493 76.9252ZM111.102 77.9768C111.096 77.8664 111.091 77.7037 111.085 77.483C111.079 77.2622 111.073 77.024 111.067 76.7684C111.061 76.5128 111.056 76.2513 111.05 75.9899C111.044 75.7226 111.044 75.4902 111.038 75.2869C110.519 75.2288 110.087 75.101 109.748 74.8918C109.404 74.6885 109.13 74.4096 108.92 74.061C108.715 73.7125 108.569 73.2942 108.482 72.812C108.4 72.3297 108.359 71.7778 108.359 71.1678V71.1329L108.009 71.1446L108.015 70.2731L109.421 70.2324L109.416 70.2441L110.198 70.2034V71.1039C110.198 71.6616 110.233 72.1438 110.297 72.5389C110.367 72.934 110.466 73.2593 110.606 73.5149C110.746 73.7648 110.921 73.9507 111.131 74.0669C111.347 74.1831 111.598 74.2411 111.884 74.2411C112.217 74.2411 112.497 74.1947 112.73 74.1017C112.964 74.0088 113.156 73.8809 113.308 73.7241C113.466 73.5672 113.582 73.3813 113.676 73.178C113.763 72.9688 113.828 72.748 113.868 72.5157C113.909 72.2833 113.938 72.0451 113.944 71.8011C113.956 71.5571 113.962 71.3247 113.962 71.0981C113.962 71.0284 113.968 70.9354 113.973 70.8192C113.985 70.703 114.008 70.5868 114.049 70.4764C114.096 70.3661 114.154 70.2673 114.23 70.1918C114.312 70.1104 114.417 70.064 114.557 70.064C114.843 70.064 115.065 70.1162 115.222 70.215C115.38 70.308 115.497 70.4242 115.572 70.5694C115.654 70.703 115.701 70.8425 115.718 70.9935C115.736 71.1388 115.742 71.2549 115.742 71.3479C115.742 71.8127 115.695 72.2542 115.602 72.6783C115.514 73.0966 115.362 73.4801 115.141 73.8228C114.925 74.1656 114.633 74.4561 114.265 74.7001C113.898 74.9441 113.437 75.1184 112.888 75.223C112.888 75.4263 112.888 75.6587 112.882 75.926C112.876 76.1932 112.87 76.4605 112.865 76.7219C112.859 76.9891 112.853 77.2332 112.847 77.4655C112.841 77.6921 112.83 77.8664 112.818 77.9942C112.806 78.1511 112.777 78.2731 112.742 78.3777C112.707 78.4764 112.655 78.552 112.584 78.6101C112.514 78.6682 112.433 78.7088 112.328 78.7263C112.223 78.7495 112.1 78.7611 111.954 78.7611C111.762 78.7611 111.61 78.7379 111.493 78.703C111.382 78.6624 111.295 78.6101 111.236 78.5345C111.178 78.4648 111.137 78.3835 111.114 78.2905C111.12 78.186 111.108 78.0872 111.102 77.9768ZM125.651 71.5048C125.406 71.4699 125.096 71.4409 124.735 71.4234C124.373 71.406 123.976 71.3886 123.556 71.3886C123.556 71.6093 123.556 71.8592 123.55 72.1496C123.55 72.4343 123.55 72.7422 123.55 73.0734C123.55 73.4045 123.55 73.7473 123.55 74.1017C123.556 74.4561 123.556 74.8047 123.562 75.1591C123.567 75.5077 123.573 75.8504 123.579 76.1758C123.585 76.5069 123.597 76.809 123.602 77.0879C123.614 77.3668 123.626 77.6108 123.637 77.8199C123.655 78.0291 123.672 78.1918 123.69 78.308C123.696 78.3661 123.678 78.4183 123.637 78.4764C123.597 78.5287 123.544 78.5752 123.474 78.6159C123.404 78.6565 123.328 78.6914 123.241 78.7146C123.153 78.7437 123.066 78.7553 122.978 78.7553C122.733 78.7553 122.534 78.7321 122.377 78.6798C122.231 78.6275 122.114 78.552 122.027 78.4474C121.945 78.3428 121.893 78.2034 121.858 78.0407C121.828 77.878 121.811 77.6863 121.805 77.4597C121.799 77.4016 121.799 77.2913 121.799 77.1286C121.799 76.9659 121.799 76.7684 121.799 76.5418C121.799 76.3094 121.799 76.048 121.799 75.7633C121.805 75.4728 121.805 75.1707 121.805 74.857C121.811 74.5433 121.811 74.2237 121.811 73.9042C121.817 73.5846 121.817 73.2709 121.817 72.9688C121.823 72.6609 121.823 72.3762 121.823 72.109C121.828 71.8417 121.828 71.6093 121.828 71.4118C121.397 71.4292 120.976 71.4467 120.574 71.4757C120.171 71.499 119.809 71.528 119.482 71.5629L119.401 70.4997C119.716 70.4416 120.06 70.4009 120.434 70.3602C120.813 70.3196 121.204 70.2905 121.607 70.2673C122.015 70.2382 122.418 70.2208 122.826 70.215C123.235 70.2034 123.62 70.1976 123.993 70.1976C124.367 70.1976 124.717 70.2034 125.032 70.2208C125.353 70.2324 125.622 70.2499 125.843 70.2731C125.931 70.2789 126.007 70.308 126.071 70.3428C126.141 70.3835 126.194 70.43 126.24 70.4939C126.281 70.552 126.316 70.6217 126.345 70.6972C126.369 70.7669 126.38 70.8425 126.38 70.918C126.38 70.9993 126.363 71.0748 126.328 71.1562C126.299 71.2317 126.246 71.3014 126.182 71.3595C126.118 71.4176 126.042 71.4641 125.948 71.499C125.873 71.5164 125.768 71.5222 125.651 71.5048ZM127.063 75.1475L127.483 75.1881L127.477 70.4358L127.489 70.4416L127.477 70.4242C127.559 70.4183 127.687 70.4009 127.857 70.3835C128.026 70.3602 128.23 70.337 128.464 70.3138C128.697 70.2905 128.96 70.2673 129.251 70.2557C129.543 70.2382 129.853 70.2266 130.185 70.2266C130.57 70.2266 130.95 70.2382 131.317 70.2673C131.685 70.2963 132.035 70.3486 132.362 70.43C132.695 70.5113 132.998 70.6217 133.272 70.7611C133.552 70.9006 133.792 71.0865 133.996 71.313C134.2 71.5396 134.358 71.8127 134.475 72.138C134.591 72.4576 134.65 72.841 134.661 73.2825C134.667 73.6427 134.632 73.9681 134.539 74.2586C134.457 74.5491 134.329 74.8047 134.154 75.0313C133.984 75.252 133.774 75.4496 133.517 75.6122C133.261 75.7749 132.969 75.9085 132.642 76.0189C132.864 76.3559 133.109 76.687 133.377 77.0182C133.646 77.3494 133.943 77.6573 134.27 77.9478C134.416 78.1453 134.463 78.3196 134.41 78.4648C134.352 78.6101 134.206 78.7088 133.967 78.7611C133.763 78.8134 133.587 78.8483 133.447 78.8599C133.302 78.8773 133.185 78.8831 133.091 78.8773C132.998 78.8773 132.922 78.8715 132.875 78.8541C132.829 78.8425 132.8 78.8308 132.788 78.825C132.63 78.7263 132.473 78.581 132.315 78.3893C132.158 78.1976 132 77.9884 131.843 77.7502C131.685 77.5178 131.539 77.2738 131.393 77.024C131.247 76.7684 131.113 76.5302 130.991 76.3094C130.862 76.3152 130.734 76.321 130.594 76.3268C130.459 76.3326 130.319 76.3327 130.179 76.3327C130.033 76.3327 129.882 76.3326 129.718 76.3268C129.561 76.321 129.397 76.3094 129.24 76.292C129.246 76.565 129.251 76.8265 129.257 77.0647C129.263 77.3087 129.275 77.5295 129.281 77.727C129.286 77.9245 129.298 78.0988 129.304 78.2441C129.31 78.3893 129.322 78.4939 129.333 78.5636L127.483 78.6275L127.477 76.0654L127.04 76.0131L127.063 75.1475ZM129.759 71.4409C129.549 71.4409 129.351 71.4467 129.17 71.4583C129.17 71.6791 129.17 71.9289 129.176 72.2194C129.181 72.5098 129.181 72.8236 129.181 73.1547C129.187 73.4859 129.187 73.8287 129.193 74.1889C129.199 74.5491 129.211 74.9035 129.216 75.2579C129.345 75.2637 129.485 75.2695 129.642 75.2753C129.8 75.2753 129.975 75.2753 130.168 75.2753C130.489 75.2753 130.804 75.2404 131.119 75.1823C131.44 75.1184 131.726 75.0138 131.977 74.8686C132.234 74.7175 132.438 74.52 132.595 74.2818C132.753 74.0378 132.835 73.7357 132.84 73.3755C132.846 73.0618 132.805 72.8003 132.718 72.5854C132.636 72.3646 132.525 72.1845 132.385 72.0451C132.239 71.8998 132.07 71.7894 131.878 71.7139C131.685 71.6326 131.469 71.5745 131.236 71.5338C131.008 71.4931 130.769 71.4699 130.518 71.4641C130.267 71.4467 130.01 71.4409 129.759 71.4409ZM143.707 77.8374C143.818 78.1046 143.829 78.308 143.73 78.4532C143.637 78.5926 143.444 78.6682 143.152 78.6856C142.907 78.6972 142.703 78.6972 142.528 78.6798C142.359 78.6682 142.224 78.6507 142.114 78.6217C142.008 78.5984 141.927 78.5752 141.874 78.552C141.828 78.5229 141.798 78.5055 141.798 78.4939C141.699 78.3021 141.594 78.064 141.483 77.7909C141.378 77.512 141.262 77.2099 141.151 76.8846C140.923 76.8846 140.672 76.8846 140.404 76.8846C140.135 76.8846 139.855 76.8846 139.552 76.8846C139.26 76.8846 138.956 76.8846 138.641 76.8846C138.332 76.8788 138.023 76.8788 137.719 76.8788C137.591 77.2215 137.474 77.5469 137.357 77.8606C137.247 78.1743 137.147 78.4648 137.066 78.7263L135.449 78.5229C135.502 78.3893 135.56 78.2382 135.636 78.0639C135.694 77.9187 135.764 77.7444 135.846 77.5411C135.928 77.3377 136.021 77.1112 136.126 76.8671H135.747C135.694 76.8671 135.647 76.8671 135.601 76.8613L135.741 75.9841C135.805 75.9841 135.898 75.9841 136.027 75.9841C136.161 75.9841 136.313 75.9841 136.482 75.9899C136.657 75.56 136.844 75.1126 137.031 74.6478C137.223 74.1772 137.41 73.7241 137.591 73.2767C137.772 72.8294 137.947 72.4111 138.11 72.0218C138.279 71.6268 138.425 71.284 138.548 70.9993L138.122 70.9528L138.309 70.1279C138.332 70.1337 138.367 70.1395 138.419 70.1453C138.472 70.1511 138.53 70.1627 138.595 70.1743C138.665 70.1801 138.735 70.1918 138.81 70.2034C138.892 70.2092 138.968 70.215 139.038 70.2208C139.155 70.2266 139.277 70.215 139.406 70.1976C139.54 70.1743 139.668 70.1453 139.797 70.122C139.925 70.093 140.048 70.0698 140.176 70.0523C140.304 70.0349 140.421 70.0291 140.526 70.0407C140.631 70.0523 140.719 70.0872 140.8 70.1453C140.882 70.2034 140.946 70.3021 140.993 70.43C141.034 70.5636 141.098 70.7727 141.191 71.0632C141.285 71.3479 141.396 71.6907 141.524 72.0799C141.653 72.4692 141.804 72.8991 141.968 73.3697C142.137 73.8403 142.312 74.3225 142.499 74.8279C142.685 75.3334 142.884 75.8446 143.082 76.3617C143.287 76.8671 143.491 77.361 143.707 77.8374ZM138.058 76.0015C138.303 76.0015 138.548 76.0015 138.793 76.0073C139.044 76.0073 139.289 76.0073 139.528 76.0131C139.768 76.0131 140.001 76.0131 140.223 76.0189C140.45 76.0189 140.66 76.0189 140.859 76.0189C140.754 75.7168 140.655 75.4147 140.561 75.1068C140.468 74.7989 140.374 74.4968 140.287 74.2121C140.199 73.9216 140.118 73.6486 140.048 73.3987C139.978 73.1431 139.913 72.9107 139.855 72.7074C139.803 72.504 139.762 72.3356 139.733 72.2019C139.703 72.0683 139.686 71.9754 139.686 71.9347C139.517 72.3356 139.347 72.7597 139.166 73.207C139.009 73.5905 138.84 74.0262 138.647 74.5142C138.443 74.9964 138.25 75.4902 138.058 76.0015ZM144.43 70.3428L145.738 70.2963C145.878 70.2847 146.041 70.2731 146.228 70.2673C146.415 70.2557 146.607 70.2499 146.806 70.2441C147.01 70.2382 147.208 70.2324 147.412 70.2324C147.611 70.2266 147.798 70.2266 147.961 70.2266C148.381 70.2266 148.79 70.2615 149.187 70.3312C149.583 70.4009 149.957 70.5171 150.307 70.6682C150.657 70.8192 150.978 71.0109 151.264 71.2491C151.556 71.4815 151.807 71.7662 152.011 72.0974C152.221 72.4227 152.379 72.8003 152.495 73.2244C152.612 73.6427 152.67 74.1191 152.67 74.6478C152.67 75.252 152.571 75.804 152.373 76.2978C152.174 76.7916 151.883 77.2215 151.497 77.5759C151.112 77.9303 150.645 78.2034 150.091 78.3951C149.537 78.5926 148.906 78.6856 148.194 78.6856C148.084 78.6856 147.926 78.6856 147.716 78.6798C147.506 78.674 147.29 78.6682 147.062 78.6565C146.835 78.6507 146.619 78.6391 146.415 78.6275C146.21 78.6159 146.059 78.5984 145.953 78.581C145.761 78.5694 145.603 78.552 145.469 78.5229C145.335 78.4881 145.23 78.4416 145.148 78.3719C145.066 78.3021 145.002 78.215 144.961 78.1046C144.926 77.9884 144.909 77.8374 144.909 77.6515L144.874 71.191L144.43 71.2085V70.3428ZM147.774 71.4467C147.693 71.4467 147.599 71.4467 147.5 71.4467C147.401 71.4467 147.296 71.4467 147.191 71.4467C147.086 71.4467 146.986 71.4467 146.881 71.4525C146.782 71.4525 146.689 71.4525 146.601 71.4583C146.607 71.7313 146.607 72.0393 146.613 72.3762C146.619 72.7132 146.619 73.0676 146.625 73.4336C146.63 73.7996 146.636 74.1714 146.642 74.5549C146.648 74.9383 146.66 75.3043 146.665 75.6703C146.671 76.0305 146.683 76.3733 146.689 76.6987C146.7 77.024 146.712 77.3145 146.724 77.5701C146.922 77.5934 147.15 77.6108 147.412 77.6166C147.675 77.6224 147.932 77.6282 148.183 77.6282C148.504 77.6282 148.819 77.5585 149.128 77.4249C149.437 77.2913 149.718 77.0937 149.963 76.8381C150.208 76.5825 150.412 76.2746 150.564 75.9085C150.715 75.5367 150.791 75.1242 150.791 74.6595C150.791 74.0552 150.704 73.5498 150.529 73.1431C150.36 72.7306 150.132 72.3995 149.846 72.1496C149.56 71.8998 149.239 71.7197 148.877 71.6151C148.515 71.5048 148.148 71.4467 147.774 71.4467ZM155.367 78.5984V78.5926C155.122 78.5926 154.917 78.5694 154.76 78.5171C154.608 78.4648 154.491 78.3893 154.398 78.2789C154.316 78.1743 154.258 78.0349 154.229 77.8722C154.199 77.7037 154.188 77.512 154.188 77.2913L154.217 71.1155L153.768 71.1271L153.785 70.2615C153.925 70.2557 154.059 70.2557 154.194 70.2557C154.31 70.2557 154.427 70.2557 154.555 70.2557C154.684 70.2557 154.795 70.2557 154.894 70.2499H155.11C155.262 70.2499 155.483 70.2499 155.769 70.2441C156.061 70.2382 156.382 70.2382 156.738 70.2324C157.094 70.2266 157.462 70.2208 157.853 70.215C158.238 70.2092 158.605 70.1976 158.95 70.1918C159.294 70.186 159.598 70.1743 159.86 70.1685C160.129 70.1569 160.321 70.1453 160.438 70.1337C160.485 70.1337 160.531 70.1511 160.578 70.1801C160.625 70.215 160.665 70.2557 160.701 70.3138C160.736 70.3719 160.765 70.4358 160.782 70.5055C160.806 70.5752 160.817 70.6507 160.817 70.7204C160.817 70.918 160.794 71.0807 160.753 71.2027C160.712 71.3247 160.642 71.4176 160.555 71.4815C160.473 71.5512 160.362 71.5919 160.234 71.621C160.099 71.6442 159.948 71.6558 159.773 71.65H155.974C155.974 71.7953 155.974 71.9463 155.974 72.0974C155.974 72.2484 155.974 72.4111 155.974 72.5796C155.974 72.748 155.974 72.9281 155.974 73.1199C155.979 73.3116 155.979 73.5207 155.979 73.7531C156.195 73.7531 156.423 73.7531 156.656 73.7531C156.896 73.7531 157.135 73.7531 157.374 73.7531C157.613 73.7473 157.847 73.7473 158.069 73.7415C158.296 73.7357 158.5 73.7357 158.693 73.7299C158.886 73.7241 159.049 73.7241 159.189 73.7183C159.335 73.7125 159.44 73.7067 159.504 73.7008C159.545 73.7008 159.586 73.7183 159.627 73.7473C159.668 73.7764 159.703 73.8112 159.726 73.8577C159.755 73.9042 159.784 73.9565 159.796 74.0204C159.813 74.0785 159.825 74.1424 159.825 74.2005C159.825 74.3632 159.808 74.491 159.773 74.5897C159.738 74.6827 159.685 74.7582 159.609 74.8105C159.539 74.857 159.452 74.886 159.347 74.8976C159.242 74.9093 159.113 74.9151 158.967 74.9151L155.979 74.9035C155.985 75.3334 155.985 75.7459 155.991 76.1351C155.997 76.5302 156.003 76.8788 156.009 77.1925C156.178 77.1925 156.388 77.1925 156.633 77.1925C156.878 77.1925 157.147 77.1925 157.421 77.1925C157.707 77.1867 157.993 77.1867 158.284 77.1867C158.576 77.1809 158.851 77.1809 159.102 77.1751C159.358 77.1693 159.592 77.1693 159.796 77.1634C160 77.1576 160.164 77.146 160.269 77.1402C160.315 77.1344 160.362 77.1518 160.409 77.1809C160.455 77.2157 160.496 77.2564 160.537 77.3087C160.572 77.361 160.601 77.4191 160.619 77.4888C160.642 77.5585 160.648 77.6282 160.648 77.6979C160.648 77.8955 160.625 78.0581 160.584 78.1801C160.543 78.3021 160.479 78.4009 160.391 78.4648C160.304 78.5345 160.193 78.5752 160.064 78.6043C159.936 78.6275 159.784 78.6391 159.603 78.6333L155.367 78.5984Z" fill="#9DA2B8"/>
<path d="M67.3224 59.523C67.3224 59.523 59.6833 60.3247 48.8755 53.4053C48.8755 53.4053 40.5478 49.2921 29.6174 55.6421C29.6174 55.6421 26.8045 57.6406 23.3439 53.1439L20.9688 53.4112C20.9688 53.4112 24.8612 56.5136 23.4548 61.1439C23.4548 61.1439 17.2864 69.9747 27.3473 78.2652C27.3473 78.2652 15.1038 60.8069 36.8596 55.0263C37.2623 54.9159 37.6533 54.8229 38.0326 54.7358C38.1143 54.7183 38.1726 54.7183 38.2777 54.6777C38.2777 54.6777 42.6895 53.9921 46.2844 54.7358C46.2844 54.7358 46.9555 54.852 48.607 55.2122C49.9492 55.5027 51.8575 56.5949 54.828 58.2913C54.828 58.2913 60.5645 60.4932 67.3224 59.523Z" fill="#1763EA"/>
<path d="M33.6737 86.5053H35.6987V89.3869C35.3836 89.4857 35.0626 89.5612 34.7358 89.6135C34.409 89.6658 34.0297 89.689 33.6037 89.689C32.6991 89.689 31.9988 89.4218 31.497 88.8873C30.9951 88.3528 30.7441 87.6033 30.7441 86.6389C30.7441 86.0231 30.8667 85.4828 31.1176 85.018C31.3686 84.5532 31.7246 84.1988 32.1914 83.9548C32.6583 83.7108 33.2068 83.5888 33.8313 83.5888C34.4674 83.5888 35.0568 83.705 35.6053 83.9374L35.3369 84.5474C34.8 84.3209 34.2806 84.2047 33.7846 84.2047C33.0609 84.2047 32.4949 84.4196 32.0864 84.8495C31.6779 85.2795 31.4736 85.8779 31.4736 86.6389C31.4736 87.4407 31.672 88.0449 32.063 88.4632C32.454 88.8757 33.0318 89.0848 33.7963 89.0848C34.2106 89.0848 34.6133 89.0383 35.0043 88.9454V87.1211H33.6737V86.5053ZM37.7121 89.6135H37.0351V85.1691H37.7121V89.6135ZM36.9768 83.9606C36.9768 83.8096 37.0176 83.6934 37.0935 83.6237C37.1693 83.5482 37.2627 83.5133 37.3794 83.5133C37.4903 83.5133 37.5837 83.5482 37.6595 83.6237C37.7412 83.6992 37.7763 83.8096 37.7763 83.9606C37.7763 84.1117 37.7354 84.2279 37.6595 84.3034C37.5837 84.3789 37.4845 84.4138 37.3794 84.4138C37.2627 84.4138 37.1693 84.3789 37.0935 84.3034C37.0118 84.2279 36.9768 84.1117 36.9768 83.9606ZM40.1222 89.6135L38.4299 85.1691H39.1535L40.1164 87.8067C40.3323 88.4225 40.4607 88.8234 40.5016 89.0093H40.5366C40.5658 88.8641 40.6591 88.5678 40.8167 88.1204C40.9743 87.6673 41.3361 86.6854 41.8905 85.1691H42.6141L40.9217 89.6135H40.1222ZM44.003 89.6135H43.3261V85.1691H44.003V89.6135ZM43.2677 83.9606C43.2677 83.8096 43.3086 83.6934 43.3844 83.6237C43.4603 83.5482 43.5537 83.5133 43.6704 83.5133C43.7813 83.5133 43.8747 83.5482 43.9505 83.6237C44.0322 83.6992 44.0672 83.8096 44.0672 83.9606C44.0672 84.1117 44.0264 84.2279 43.9505 84.3034C43.8747 84.3789 43.7754 84.4138 43.6704 84.4138C43.5537 84.4138 43.4603 84.3789 43.3844 84.3034C43.3027 84.2279 43.2677 84.1117 43.2677 83.9606ZM48.4908 89.6135V86.7377C48.4908 86.3775 48.4091 86.1044 48.2398 85.9243C48.0764 85.7442 47.8138 85.6571 47.4637 85.6571C46.9968 85.6571 46.6525 85.7849 46.4366 86.0347C46.2206 86.2845 46.1098 86.7028 46.1098 87.278V89.6077H45.4328V85.1633H45.9814L46.0922 85.7733H46.1273C46.2673 85.5525 46.4599 85.384 46.7108 85.2678C46.9618 85.1458 47.2419 85.0819 47.5454 85.0819C48.0823 85.0819 48.4908 85.2097 48.7592 85.4712C49.0335 85.7268 49.1677 86.1393 49.1677 86.7087V89.6077H48.4908V89.6135ZM54.2157 85.1633V85.5874L53.387 85.6861C53.4628 85.7791 53.5329 85.9069 53.5912 86.058C53.6496 86.209 53.6788 86.3833 53.6788 86.575C53.6788 87.0108 53.527 87.3593 53.2294 87.615C52.9318 87.8764 52.5233 88.0042 51.9981 88.0042C51.8638 88.0042 51.7413 87.9926 51.6246 87.9694C51.3386 88.1204 51.1927 88.3121 51.1927 88.5387C51.1927 88.6607 51.2452 88.7537 51.3445 88.8118C51.4437 88.8699 51.6187 88.8989 51.8638 88.8989H52.6517C53.136 88.8989 53.5037 88.9977 53.7663 89.201C54.0289 89.4044 54.1573 89.7007 54.1573 90.0841C54.1573 90.5779 53.9589 90.9497 53.562 91.2054C53.1652 91.4668 52.5875 91.5946 51.8288 91.5946C51.2452 91.5946 50.7959 91.4842 50.4749 91.2693C50.1598 91.0543 50.0022 90.7464 50.0022 90.3513C50.0022 90.0841 50.0898 89.8459 50.2648 89.6484C50.4399 89.4508 50.685 89.3172 51.0001 89.2475C50.8834 89.1952 50.7901 89.1139 50.7084 89.0093C50.6325 88.8989 50.5916 88.7769 50.5916 88.6317C50.5916 88.469 50.6325 88.3296 50.72 88.2076C50.8076 88.0856 50.9418 87.9694 51.1344 87.8532C50.9009 87.7602 50.7142 87.5975 50.5683 87.371C50.4224 87.1444 50.3524 86.8829 50.3524 86.5925C50.3524 86.1044 50.4983 85.7326 50.7901 85.4712C51.0818 85.2039 51.502 85.0761 52.0389 85.0761C52.2723 85.0761 52.4824 85.1052 52.6692 85.1575H54.2157V85.1633ZM50.6558 90.3572C50.6558 90.6012 50.755 90.7813 50.9593 90.9033C51.1635 91.0253 51.4553 91.0892 51.8347 91.0892C52.4007 91.0892 52.8209 91.002 53.0952 90.8336C53.3695 90.6651 53.5095 90.4385 53.5095 90.148C53.5095 89.9098 53.4337 89.7413 53.2878 89.6426C53.136 89.5496 52.8559 89.5031 52.4416 89.5031H51.6304C51.3211 89.5031 51.0818 89.5787 50.9126 89.7239C50.7375 89.875 50.6558 90.0841 50.6558 90.3572ZM51.0235 86.5925C51.0235 86.9062 51.111 87.1386 51.2861 87.2954C51.4612 87.4523 51.7063 87.5336 52.0214 87.5336C52.6808 87.5336 53.0135 87.2141 53.0135 86.575C53.0135 85.9069 52.6808 85.5699 52.0097 85.5699C51.6946 85.5699 51.4495 85.6571 51.2744 85.8256C51.1052 85.9999 51.0235 86.2555 51.0235 86.5925ZM60.7634 88.0333C60.7634 88.5561 60.5708 88.9628 60.1915 89.2533C59.8122 89.5438 59.2928 89.689 58.645 89.689C57.9389 89.689 57.3962 89.5961 57.0168 89.416V88.7479C57.2619 88.8524 57.5304 88.9338 57.8163 88.9919C58.1023 89.05 58.3882 89.079 58.6742 89.079C59.1352 89.079 59.4854 88.9919 59.7188 88.8176C59.9522 88.6433 60.0689 88.3993 60.0689 88.0856C60.0689 87.8822 60.0281 87.7137 59.9406 87.5801C59.8589 87.4465 59.7188 87.3245 59.5262 87.2141C59.3336 87.1037 59.036 86.9759 58.6392 86.8365C58.0848 86.6389 57.6879 86.4065 57.4487 86.1335C57.2152 85.8604 57.0927 85.5118 57.0927 85.0761C57.0927 84.6171 57.2678 84.2569 57.6121 83.9839C57.9564 83.7108 58.4116 83.5772 58.9835 83.5772C59.5729 83.5772 60.1215 83.6876 60.6175 83.9026L60.4016 84.501C59.9114 84.2976 59.4328 84.193 58.966 84.193C58.5983 84.193 58.3124 84.2744 58.1081 84.4254C57.9039 84.5823 57.7988 84.8031 57.7988 85.0761C57.7988 85.2795 57.8397 85.4537 57.9155 85.5816C57.9914 85.7094 58.1198 85.8314 58.3007 85.9418C58.4816 86.0521 58.7617 86.1683 59.1294 86.302C59.7538 86.5227 60.1857 86.7609 60.4191 87.0166C60.6467 87.2954 60.7634 87.6266 60.7634 88.0333ZM63.7688 89.6949C63.1094 89.6949 62.59 89.4973 62.2048 89.0965C61.8255 88.6956 61.6329 88.1378 61.6329 87.4291C61.6329 86.7145 61.808 86.1451 62.164 85.721C62.52 85.2969 62.9985 85.0877 63.5938 85.0877C64.154 85.0877 64.5975 85.2736 64.9243 85.6397C65.2511 86.0057 65.4145 86.4879 65.4145 87.0863V87.5104H62.3391C62.3507 88.0333 62.485 88.4283 62.7359 88.7014C62.9868 88.9686 63.3428 89.1081 63.798 89.1081C64.2765 89.1081 64.7551 89.0093 65.2219 88.806V89.4044C64.9827 89.5089 64.7551 89.5787 64.5392 89.6251C64.3232 89.6716 64.0665 89.6949 63.7688 89.6949ZM63.5821 85.6513C63.2261 85.6513 62.9343 85.7675 62.7242 85.9999C62.5141 86.2323 62.3858 86.5576 62.3507 86.9643H64.6851C64.6851 86.5402 64.5917 86.2148 64.3991 85.9882C64.2065 85.7617 63.9381 85.6513 63.5821 85.6513ZM67.2411 89.6135H66.5642V83.2983H67.2411V89.6135ZM69.3537 89.6135H68.6767V83.2983H69.3537V89.6135ZM72.6742 89.6949C72.0148 89.6949 71.4954 89.4973 71.1102 89.0965C70.7309 88.6956 70.5383 88.1378 70.5383 87.4291C70.5383 86.7145 70.7134 86.1451 71.0694 85.721C71.4254 85.2969 71.9039 85.0877 72.4992 85.0877C73.0594 85.0877 73.5029 85.2736 73.8297 85.6397C74.1565 86.0057 74.3199 86.4879 74.3199 87.0863V87.5104H71.2386C71.2503 88.0333 71.3845 88.4283 71.6355 88.7014C71.8864 88.9686 72.2424 89.1081 72.6976 89.1081C73.1761 89.1081 73.6546 89.0093 74.1215 88.806V89.4044C73.8822 89.5089 73.6547 89.5787 73.4387 89.6251C73.2345 89.6716 72.9777 89.6949 72.6742 89.6949ZM72.4933 85.6513C72.1373 85.6513 71.8456 85.7675 71.6355 85.9999C71.4254 86.2323 71.297 86.5576 71.262 86.9643H73.5963C73.5963 86.5402 73.5029 86.2148 73.3103 85.9882C73.1178 85.7617 72.8435 85.6513 72.4933 85.6513ZM77.5121 85.0819C77.7105 85.0819 77.8856 85.0994 78.0432 85.1284L77.9498 85.7559C77.763 85.7152 77.5996 85.6978 77.4596 85.6978C77.0978 85.6978 76.7885 85.843 76.5317 86.1335C76.2749 86.424 76.1465 86.79 76.1465 87.2257V89.6135H75.4696V85.1691H76.0298L76.1057 85.994H76.1407C76.3041 85.7036 76.5084 85.4828 76.7418 85.3259C76.9752 85.1633 77.232 85.0819 77.5121 85.0819ZM81.7605 88.3993C81.7605 88.8118 81.6088 89.1313 81.2937 89.3579C80.9844 89.5845 80.5467 89.6949 79.9923 89.6949C79.4029 89.6949 78.936 89.6019 78.6092 89.416V88.7885C78.8252 88.8989 79.0527 88.9802 79.2978 89.0442C79.5429 89.1081 79.7822 89.1371 80.0098 89.1371C80.36 89.1371 80.6342 89.079 80.8268 88.9686C81.0194 88.8524 81.1128 88.684 81.1128 88.4516C81.1128 88.2773 81.0369 88.132 80.8852 88.01C80.7335 87.888 80.4417 87.737 80.004 87.5743C79.5896 87.4174 79.292 87.2838 79.1169 87.1734C78.9419 87.0572 78.8135 86.9236 78.7259 86.7784C78.6442 86.6331 78.5976 86.4588 78.5976 86.2555C78.5976 85.8953 78.7434 85.6048 79.0411 85.4015C79.3387 85.1923 79.7414 85.0877 80.2608 85.0877C80.7393 85.0877 81.212 85.1865 81.673 85.3782L81.4337 85.9243C80.9844 85.7384 80.5817 85.6513 80.2141 85.6513C79.8931 85.6513 79.6538 85.7036 79.4904 85.8023C79.327 85.9011 79.2453 86.0405 79.2453 86.2148C79.2453 86.3368 79.2745 86.4356 79.3329 86.5169C79.3971 86.5983 79.4963 86.6796 79.6305 86.7551C79.7647 86.8307 80.0273 86.941 80.4125 87.0863C80.9435 87.278 81.2995 87.4697 81.4863 87.6673C81.6672 87.859 81.7605 88.103 81.7605 88.3993ZM86.4759 89.1371C86.5926 89.1371 86.7093 89.1313 86.8202 89.1139C86.931 89.0965 87.0186 89.0732 87.0828 89.0558V89.5728C87.0069 89.6077 86.9019 89.6368 86.756 89.66C86.6159 89.6832 86.4875 89.6949 86.3708 89.6949C85.5071 89.6949 85.0753 89.2417 85.0753 88.3354V85.6919H84.4333V85.3666L85.0753 85.0877L85.3612 84.1407H85.7522V85.1691H87.0478V85.6919H85.7522V88.3063C85.7522 88.5736 85.8164 88.7769 85.9448 88.9222C86.079 89.0674 86.2541 89.1371 86.4759 89.1371ZM91.0394 89.6135V86.7377C91.0394 86.3775 90.9577 86.1044 90.7885 85.9243C90.6251 85.7442 90.3625 85.6571 90.0123 85.6571C89.5396 85.6571 89.2012 85.7849 88.9794 86.0405C88.7635 86.2962 88.6584 86.7087 88.6584 87.2896V89.6135H87.9815V83.2983H88.6584V85.2097C88.6584 85.4363 88.6468 85.628 88.6234 85.7791H88.6643C88.7985 85.5641 88.9852 85.3957 89.2304 85.2736C89.4755 85.1516 89.7556 85.0877 90.0707 85.0877C90.6193 85.0877 91.0278 85.2156 91.2962 85.477C91.5705 85.7326 91.7106 86.1451 91.7106 86.7087V89.6077H91.0394V89.6135ZM94.9961 89.6949C94.3367 89.6949 93.8114 89.4973 93.4321 89.0965C93.0528 88.6956 92.8602 88.1378 92.8602 87.4291C92.8602 86.7145 93.0353 86.1451 93.3913 85.721C93.7472 85.2969 94.2258 85.0877 94.821 85.0877C95.3813 85.0877 95.8248 85.2736 96.1516 85.6397C96.4784 86.0057 96.6418 86.4879 96.6418 87.0863V87.5104H93.5663C93.578 88.0333 93.7122 88.4283 93.9632 88.7014C94.2141 88.9686 94.5701 89.1081 95.0253 89.1081C95.5038 89.1081 95.9823 89.0093 96.4492 88.806V89.4044C96.2099 89.5089 95.9824 89.5787 95.7664 89.6251C95.5563 89.6716 95.2996 89.6949 94.9961 89.6949ZM94.8152 85.6513C94.4534 85.6513 94.1674 85.7675 93.9573 85.9999C93.7472 86.2323 93.6189 86.5576 93.5838 86.9643H95.9182C95.9182 86.5402 95.8248 86.2148 95.6322 85.9882C95.4396 85.7617 95.1653 85.6513 94.8152 85.6513ZM103.843 85.4073C103.843 86.0057 103.639 86.4704 103.225 86.7958C102.816 87.1153 102.227 87.278 101.462 87.278H100.762V89.6077H100.067V83.676H101.614C103.096 83.6818 103.843 84.2569 103.843 85.4073ZM100.756 86.6854H101.38C101.993 86.6854 102.437 86.5866 102.711 86.3891C102.985 86.1916 103.125 85.872 103.125 85.4421C103.125 85.0529 102.997 84.7566 102.74 84.5649C102.483 84.3731 102.081 84.2744 101.532 84.2744H100.756V86.6854ZM108.844 87.3826C108.844 88.1088 108.664 88.6723 108.296 89.0848C107.928 89.4915 107.42 89.6949 106.779 89.6949C106.382 89.6949 106.026 89.6019 105.716 89.416C105.407 89.2301 105.168 88.9628 104.999 88.6142C104.829 88.2657 104.748 87.859 104.748 87.3884C104.748 86.6622 104.929 86.0986 105.296 85.6978C105.658 85.2911 106.166 85.0877 106.814 85.0877C107.438 85.0877 107.934 85.2969 108.302 85.7094C108.664 86.1219 108.844 86.6796 108.844 87.3826ZM105.442 87.3826C105.442 87.9519 105.553 88.3819 105.786 88.684C106.02 88.9861 106.353 89.1313 106.796 89.1313C107.24 89.1313 107.572 88.9861 107.8 88.6898C108.033 88.3935 108.144 87.9577 108.144 87.3884C108.144 86.8248 108.027 86.3949 107.8 86.1044C107.572 85.8081 107.234 85.6629 106.784 85.6629C106.341 85.6629 106.008 85.8081 105.781 86.0986C105.559 86.3775 105.442 86.8132 105.442 87.3826ZM113.682 89.6135L112.865 87.0049C112.813 86.8481 112.719 86.4821 112.573 85.9185H112.538C112.428 86.3891 112.334 86.7551 112.253 87.0166L111.412 89.6193H110.63L109.41 85.1749H110.117C110.403 86.2903 110.624 87.1444 110.77 87.7254C110.922 88.3121 111.009 88.7014 111.033 88.9047H111.068C111.097 88.7479 111.144 88.5503 111.208 88.3063C111.278 88.0623 111.336 87.8648 111.383 87.7195L112.2 85.1691H112.935L113.735 87.7195C113.887 88.1843 113.992 88.5736 114.044 88.8931H114.079C114.091 88.7943 114.12 88.6433 114.167 88.4399C114.213 88.2366 114.499 87.1444 115.019 85.1633H115.719L114.482 89.6077H113.682V89.6135ZM118.421 89.6949C117.761 89.6949 117.242 89.4973 116.857 89.0965C116.478 88.6956 116.285 88.1378 116.285 87.4291C116.285 86.7145 116.46 86.1451 116.816 85.721C117.172 85.2969 117.651 85.0877 118.246 85.0877C118.806 85.0877 119.25 85.2736 119.576 85.6397C119.903 86.0057 120.067 86.4879 120.067 87.0863V87.5104H116.991C117.003 88.0333 117.137 88.4283 117.388 88.7014C117.639 88.9686 117.995 89.1081 118.45 89.1081C118.929 89.1081 119.407 89.0093 119.874 88.806V89.4044C119.635 89.5089 119.407 89.5787 119.191 89.6251C118.975 89.6716 118.719 89.6949 118.421 89.6949ZM118.234 85.6513C117.872 85.6513 117.586 85.7675 117.376 85.9999C117.166 86.2323 117.038 86.5576 117.003 86.9643H119.337C119.337 86.5402 119.244 86.2148 119.051 85.9882C118.859 85.7617 118.59 85.6513 118.234 85.6513ZM123.253 85.0819C123.451 85.0819 123.626 85.0994 123.784 85.1284L123.691 85.7559C123.504 85.7152 123.34 85.6978 123.2 85.6978C122.839 85.6978 122.529 85.843 122.273 86.1335C122.016 86.424 121.887 86.79 121.887 87.2257V89.6135H121.21V85.1691H121.771L121.847 85.994H121.882C122.045 85.7036 122.249 85.4828 122.483 85.3259C122.716 85.1633 122.979 85.0819 123.253 85.0819ZM128.237 89.1371C128.353 89.1371 128.47 89.1313 128.581 89.1139C128.692 89.0965 128.779 89.0732 128.844 89.0558V89.5728C128.768 89.6077 128.663 89.6368 128.517 89.66C128.377 89.6832 128.248 89.6949 128.132 89.6949C127.268 89.6949 126.836 89.2417 126.836 88.3354V85.6919H126.194V85.3666L126.836 85.0877L127.122 84.1407H127.513V85.1691H128.809V85.6919H127.513V88.3063C127.513 88.5736 127.577 88.7769 127.706 88.9222C127.84 89.0674 128.015 89.1371 128.237 89.1371ZM133.594 87.3826C133.594 88.1088 133.413 88.6723 133.045 89.0848C132.678 89.4915 132.17 89.6949 131.528 89.6949C131.131 89.6949 130.775 89.6019 130.466 89.416C130.157 89.2301 129.917 88.9628 129.748 88.6142C129.579 88.2657 129.497 87.859 129.497 87.3884C129.497 86.6622 129.678 86.0986 130.046 85.6978C130.408 85.2911 130.915 85.0877 131.563 85.0877C132.188 85.0877 132.684 85.2969 133.051 85.7094C133.413 86.1219 133.594 86.6796 133.594 87.3826ZM130.192 87.3826C130.192 87.9519 130.308 88.3819 130.536 88.684C130.764 88.9803 131.102 89.1313 131.54 89.1313C131.983 89.1313 132.316 88.9861 132.544 88.6898C132.777 88.3935 132.888 87.9577 132.888 87.3884C132.888 86.8248 132.771 86.3949 132.544 86.1044C132.316 85.8081 131.977 85.6629 131.528 85.6629C131.085 85.6629 130.752 85.8081 130.524 86.0986C130.308 86.3775 130.192 86.8132 130.192 87.3826ZM138.893 89.6135H138.198V84.2976H136.313V83.6818H140.778V84.2976H138.893V89.6135ZM143.614 85.0819C143.812 85.0819 143.993 85.0994 144.151 85.1284L144.058 85.7559C143.871 85.7152 143.707 85.6978 143.567 85.6978C143.206 85.6978 142.896 85.843 142.639 86.1335C142.383 86.424 142.254 86.79 142.254 87.2257V89.6135H141.577V85.1691H142.138L142.213 85.994H142.248C142.412 85.7036 142.616 85.4828 142.85 85.3259C143.077 85.1633 143.334 85.0819 143.614 85.0819ZM147.728 89.6135L147.594 88.9802H147.559C147.337 89.2591 147.115 89.4508 146.888 89.5496C146.666 89.6484 146.392 89.6949 146.059 89.6949C145.616 89.6949 145.271 89.5787 145.015 89.3521C144.764 89.1255 144.641 88.8001 144.641 88.3818C144.641 87.4871 145.365 87.0166 146.806 86.9701L147.565 86.9468V86.668C147.565 86.3194 147.489 86.0638 147.337 85.8953C147.186 85.7268 146.946 85.6455 146.614 85.6455C146.24 85.6455 145.82 85.7559 145.353 85.9882L145.143 85.4712C145.365 85.355 145.604 85.2562 145.867 85.1923C146.129 85.1226 146.392 85.0877 146.654 85.0877C147.186 85.0877 147.582 85.2039 147.833 85.4421C148.09 85.6745 148.218 86.0521 148.218 86.575V89.6077H147.728V89.6135ZM146.199 89.1371C146.619 89.1371 146.952 89.0209 147.191 88.7943C147.431 88.562 147.553 88.2424 147.553 87.8299V87.4291L146.876 87.4581C146.339 87.4755 145.948 87.5627 145.709 87.7079C145.476 87.8532 145.353 88.0856 145.353 88.3935C145.353 88.6375 145.429 88.8234 145.575 88.9512C145.727 89.0732 145.937 89.1371 146.199 89.1371ZM152.665 89.0151H152.63C152.315 89.4683 151.848 89.6949 151.23 89.6949C150.646 89.6949 150.191 89.4973 149.864 89.0965C149.543 88.7014 149.38 88.132 149.38 87.4C149.38 86.668 149.543 86.0986 149.87 85.6919C150.197 85.2853 150.652 85.0819 151.23 85.0819C151.837 85.0819 152.298 85.3027 152.624 85.7384H152.677L152.648 85.4189L152.63 85.1052V83.2983H153.307V89.6135H152.759L152.665 89.0151ZM151.311 89.1313C151.772 89.1313 152.105 89.0093 152.315 88.7595C152.525 88.5097 152.63 88.103 152.63 87.5453V87.4058C152.63 86.7784 152.525 86.3252 152.315 86.058C152.105 85.7849 151.772 85.6513 151.311 85.6513C150.915 85.6513 150.611 85.8023 150.401 86.1161C150.191 86.424 150.086 86.8539 150.086 87.4116C150.086 87.981 150.191 88.4109 150.401 88.6956C150.611 88.9803 150.909 89.1313 151.311 89.1313ZM156.634 89.6949C155.974 89.6949 155.455 89.4973 155.07 89.0965C154.69 88.6956 154.498 88.1378 154.498 87.4291C154.498 86.7145 154.673 86.1451 155.029 85.721C155.385 85.2969 155.863 85.0877 156.459 85.0877C157.019 85.0877 157.462 85.2736 157.789 85.6397C158.116 86.0057 158.279 86.4879 158.279 87.0863V87.5104H155.204C155.216 88.0333 155.35 88.4283 155.601 88.7014C155.852 88.9686 156.208 89.1081 156.663 89.1081C157.141 89.1081 157.62 89.0093 158.087 88.806V89.4044C157.847 89.5089 157.62 89.5787 157.404 89.6251C157.188 89.6716 156.931 89.6949 156.634 89.6949ZM156.447 85.6513C156.085 85.6513 155.799 85.7675 155.589 85.9999C155.379 86.2323 155.251 86.5576 155.216 86.9643H157.55C157.55 86.5402 157.456 86.2148 157.264 85.9882C157.071 85.7617 156.803 85.6513 156.447 85.6513Z" fill="#666666"/>
</svg>
