<svg width="20" height="14" viewBox="0 0 20 14" fill="none" xmlns="http://www.w3.org/2000/svg">
<path d="M0.2724 6.33109L6.22406 0.27703C6.58719 -0.0923434 7.1761 -0.0923434 7.53923 0.27703C7.90243 0.646479 7.90243 1.24538 7.53923 1.61483L3.1751 6.05404H19.0701C19.5836 6.05404 20 6.4776 20 6.99999C20 7.5223 19.5836 7.94594 19.0701 7.94594H3.1751L7.53908 12.3852C7.90228 12.7546 7.90228 13.3535 7.53908 13.723C7.35756 13.9075 7.11949 14 6.8815 14C6.6435 14 6.40551 13.9075 6.22391 13.723L0.2724 7.66889C-0.0907993 7.29944 -0.0907993 6.70054 0.2724 6.33109Z" fill="#242222"/>
</svg>
