<svg width="48" height="48" viewBox="0 0 48 48" fill="none" xmlns="http://www.w3.org/2000/svg">
<g clip-path="url(#clip0)">
<path d="M39.1571 19.4023L28.1553 5.29521L13.2082 14.4489L12.8174 13.8091L28.3353 4.30664L39.7489 18.941L39.1571 19.4023Z" fill="#2C3E50"/>
<path d="M28.0493 9.0596C29.8219 9.0596 31.2588 7.62266 31.2588 5.85011C31.2588 4.07756 29.8219 2.64062 28.0493 2.64062C26.2768 2.64062 24.8398 4.07756 24.8398 5.85011C24.8398 7.62266 26.2768 9.0596 28.0493 9.0596Z" fill="#415E72"/>
<path d="M28.0496 7.52298C28.9733 7.52298 29.7222 6.77412 29.7222 5.85036C29.7222 4.92659 28.9733 4.17773 28.0496 4.17773C27.1258 4.17773 26.377 4.92659 26.377 5.85036C26.377 6.77412 27.1258 7.52298 28.0496 7.52298Z" fill="#517A91"/>
<path d="M-0.000211575 37.148L43.0645 45.3594L47.9997 19.4764L4.93502 11.265L-0.000211575 37.148Z" fill="#E04F5F"/>
<path d="M8.41567 27.7761C9.00747 28.2749 9.71627 28.6161 10.4753 28.7677C11.5254 28.9709 12.2087 28.5921 12.3505 27.8593C12.4817 27.1798 12.106 26.693 11.0401 26.0592C9.66527 25.2416 8.87171 24.2733 9.12073 22.984C9.4035 21.5191 10.8459 20.637 12.7885 21.0121C13.5371 21.1351 14.2466 21.4336 14.8587 21.8821L14.2046 23.1227C13.7088 22.7305 13.1238 22.4657 12.502 22.3524C11.4639 22.1514 10.9021 22.6232 10.8016 23.1437C10.6681 23.8353 11.1264 24.2553 12.235 24.9529C13.6796 25.8394 14.2871 26.771 14.0351 28.0626C13.7576 29.5012 12.424 30.543 10.107 30.0945C9.26624 29.9385 8.47493 29.586 7.79688 29.0654L8.41567 27.7761Z" fill="white"/>
<path d="M23.8698 27.8586C23.2893 30.8678 21.1329 32.2344 18.6562 31.7589C16.1255 31.2714 14.9006 29.0309 15.4092 26.3945C15.9417 23.6373 18.0486 22.0277 20.5786 22.5167C23.2008 23.0185 24.3626 25.3009 23.8698 27.8586ZM17.1456 26.6983C16.793 28.5224 17.4321 30.1485 19.0034 30.4546C20.5883 30.7606 21.7637 29.469 22.1259 27.5908C22.4522 25.9002 21.9219 24.1406 20.2838 23.8233C18.6592 23.5098 17.5033 24.8471 17.1456 26.699V26.6983Z" fill="white"/>
<path d="M26.1305 23.7363L27.7687 24.0529L26.3001 31.6562L29.9888 32.368L29.7248 33.7383L24.3994 32.71L26.1305 23.7363Z" fill="white"/>
<path d="M32.6721 25.125C33.5609 25.1603 34.446 25.266 35.3183 25.4415C36.6437 25.5893 37.8723 26.2096 38.7791 27.1877C39.5809 28.192 39.8629 29.5151 39.5404 30.7594C39.3521 32.1088 38.5923 33.3111 37.4537 34.0597C36.1231 34.7265 34.5945 34.884 33.1559 34.5022C32.4164 34.3649 31.6858 34.1819 30.9688 33.9546L32.6721 25.125ZM32.8431 33.0448C33.1372 33.1386 33.4379 33.2106 33.7432 33.2586C35.8719 33.6846 37.363 32.7561 37.8025 30.4796C38.1986 28.4972 37.2722 27.1441 35.2216 26.7481C34.848 26.6671 34.467 26.6259 34.0845 26.6266L32.8431 33.0448Z" fill="white"/>
</g>
<defs>
<clipPath id="clip0">
<rect width="48" height="48" fill="white"/>
</clipPath>
</defs>
</svg>
