<svg width="24" height="24" viewBox="0 0 24 24" fill="none" xmlns="http://www.w3.org/2000/svg">
<g clip-path="url(#clip0)">
<path d="M13.3918 12.3567C13.1867 12.9348 13.3149 13.6058 13.7768 14.0676L14.4398 14.7305C14.7596 15.0503 15.1797 15.2103 15.5998 15.2103C16.02 15.2103 16.4401 15.0503 16.7599 14.7305L20.7374 10.753C21.3771 10.1133 21.3771 9.07248 20.7375 8.43283L20.0745 7.76983C19.6127 7.30806 18.9418 7.17981 18.3636 7.38489L13.8303 2.85161C14.0354 2.2735 13.9072 1.60263 13.4454 1.14077L12.7824 0.477766C12.1427 -0.161844 11.1018 -0.161891 10.4622 0.477813L6.4847 4.45534C5.84504 5.095 5.84504 6.13586 6.4847 6.77556L7.14765 7.43842C7.46748 7.75825 7.88762 7.91819 8.30771 7.91819C8.49423 7.91819 8.68074 7.8865 8.85849 7.82345L9.60048 8.56544L0.986351 16.1355C0.386492 16.6626 0.0277106 17.4227 0.00197624 18.2208C-0.0237581 19.0189 0.285336 19.8005 0.850039 20.3652C1.3929 20.9081 2.13629 21.2148 2.90209 21.2148C2.93284 21.2148 2.96359 21.2142 2.99438 21.2133C3.79252 21.1876 4.55265 20.8288 5.0798 20.2289L12.6498 11.6148L13.3918 12.3567ZM18.7486 8.76428C18.7943 8.71853 18.8544 8.6957 18.9144 8.6957C18.9744 8.6957 19.0344 8.71853 19.0801 8.76423L19.743 9.42719C19.8344 9.51855 19.8344 9.66728 19.743 9.75864L15.7655 13.7361C15.6742 13.8275 15.5254 13.8275 15.4341 13.7361L14.7711 13.0732C14.6798 12.9819 14.6798 12.8331 14.7711 12.7418L18.7486 8.76428ZM12.9482 3.95814L17.2571 8.26708L14.274 11.2503L9.96502 6.94127L12.9482 3.95814ZM8.47351 6.44406C8.3821 6.53547 8.23337 6.53542 8.14206 6.44402L7.4791 5.78116C7.38774 5.6898 7.38774 5.54106 7.4791 5.4497L11.4565 1.47222C11.5023 1.42647 11.5623 1.40364 11.6223 1.40364C11.6823 1.40364 11.7424 1.42647 11.788 1.47217L12.451 2.13512C12.5424 2.22648 12.5424 2.37522 12.451 2.46658L8.47351 6.44406ZM4.02348 19.3006C3.7479 19.6142 3.36634 19.7943 2.9491 19.8078C2.53201 19.8207 2.13952 19.666 1.8444 19.3709C1.54923 19.0757 1.39407 18.6833 1.40752 18.2661C1.42098 17.8489 1.60107 17.4673 1.91462 17.1918L8.12706 11.7324L9.48292 13.0882L4.02348 19.3006ZM10.4131 12.0297L9.18554 10.8022L10.5969 9.56186L11.6534 10.6183L10.4131 12.0297Z" fill="white"/>
<path d="M23.2969 22.5938H22.5937V21.8906C22.5937 20.7275 21.6475 19.7812 20.4844 19.7812H15.7969C14.6338 19.7812 13.6875 20.7275 13.6875 21.8906V22.5938H12.9844C12.5961 22.5938 12.2812 22.9086 12.2812 23.2969C12.2812 23.6852 12.5961 24 12.9844 24H23.2969C23.6852 24 24 23.6852 24 23.2969C24 22.9086 23.6852 22.5938 23.2969 22.5938ZM21.1875 22.5938H15.0937V21.8906C15.0937 21.5029 15.4092 21.1875 15.7969 21.1875H20.4844C20.8721 21.1875 21.1875 21.5029 21.1875 21.8906V22.5938Z" fill="white"/>
<path d="M17.4375 16.2656V17.6719C17.4375 18.0602 17.7523 18.375 18.1406 18.375C18.5289 18.375 18.8438 18.0602 18.8438 17.6719V16.2656C18.8438 15.8773 18.5289 15.5625 18.1406 15.5625C17.7523 15.5625 17.4375 15.8773 17.4375 16.2656Z" fill="white"/>
<path d="M20.755 16.5103L20.2863 17.9165C20.1635 18.2849 20.3626 18.6831 20.731 18.8059C20.8047 18.8305 20.8797 18.8422 20.9534 18.8422C21.2478 18.8422 21.5221 18.6558 21.6204 18.3612L22.0891 16.9549C22.2119 16.5866 22.0128 16.1883 21.6444 16.0655C21.2761 15.9428 20.8779 16.1419 20.755 16.5103Z" fill="white"/>
<path d="M14.6372 16.0657C14.2688 16.1885 14.0697 16.5866 14.1925 16.9551L14.6613 18.3613C14.7595 18.656 15.0338 18.8423 15.3282 18.8423C15.4019 18.8423 15.4769 18.8306 15.5507 18.8061C15.9191 18.6833 16.1181 18.2851 15.9954 17.9167L15.5266 16.5104C15.4038 16.1419 15.0056 15.9427 14.6372 16.0657Z" fill="white"/>
</g>
<defs>
<clipPath id="clip0">
<rect width="24" height="24" fill="white"/>
</clipPath>
</defs>
</svg>
