<svg width="60" height="60" viewBox="0 0 60 60" fill="none" xmlns="http://www.w3.org/2000/svg">
<rect width="60" height="60" rx="5" fill="url(#paint0_linear)"/>
<path d="M23.9322 29.312C23.83 29.954 23.5866 30.5652 23.2197 31.1018C23.7981 31.4841 24.4877 31.6619 25.1788 31.607C25.87 31.6627 26.5598 31.484 27.1369 31.0997C26.7707 30.5636 26.5277 29.9531 26.4254 29.312C25.6068 29.5149 24.7509 29.5149 23.9322 29.312Z" fill="white"/>
<path d="M25.714 16.6073H24.6426C22.5725 16.6096 20.8949 18.2872 20.8926 20.3573V24.1073C20.8926 26.4742 22.8114 28.393 25.1783 28.393C27.5452 28.393 29.464 26.4742 29.464 24.1073V21.4287C29.4869 20.8537 29.2685 20.2952 28.8615 19.8883C28.4546 19.4814 27.8962 19.263 27.3211 19.2859C27.0253 19.2859 26.7854 19.046 26.7854 18.7501C26.7854 18.4543 27.0253 18.2144 27.3211 18.2144C28.1017 18.1819 28.8661 18.4428 29.464 18.9457V17.143C29.5377 16.1159 28.8079 15.2054 27.7894 15.0537C27.5369 15.987 26.6807 16.628 25.714 16.6073Z" fill="white"/>
<path d="M43.3927 17.6787H35.8927C35.5968 17.6787 35.357 17.9186 35.357 18.2144V23.5716C35.357 23.8674 35.5968 24.1073 35.8927 24.1073H38.0356V28.768L36.9963 33.6055C36.9619 33.7592 36.8621 33.8902 36.7232 33.9643C36.5842 34.0384 36.4199 34.0482 36.2731 33.9912L31.3659 32.0305C30.669 31.7519 29.9254 31.6083 29.1749 31.6073H28.1463C27.8088 32.0251 26.9945 32.6787 25.1784 32.6787C23.3624 32.6787 22.5481 32.0251 22.2106 31.6073H21.8677C21.3591 31.6066 20.8559 31.7106 20.3891 31.9126L18.6641 32.6466C17.0903 33.3254 16.071 34.8754 16.0713 36.5894V41.2501C16.0737 43.3202 17.7512 44.9977 19.8213 45.0001H26.2499C27.1375 45.0001 27.857 44.2806 27.857 43.393C27.857 42.5054 27.1375 41.7858 26.2499 41.7858H19.8213C19.5254 41.7858 19.2856 41.546 19.2856 41.2501V36.5894C19.2856 36.2935 19.5254 36.0537 19.8213 36.0537C20.1172 36.0537 20.357 36.2935 20.357 36.5894V40.7144H26.2499C27.7292 40.7144 28.9284 41.9136 28.9284 43.393C28.9268 43.9749 28.7328 44.5399 28.3766 45.0001H31.0713V36.5305L29.7749 36.0108C29.4997 35.9014 29.3654 35.5896 29.4749 35.3144C29.5843 35.0392 29.8961 34.9049 30.1713 35.0144L36.257 37.4465C36.9897 37.7425 37.8158 37.6991 38.5135 37.3281C39.2111 36.957 39.7089 36.2963 39.8731 35.5233L40.9927 30.2894L41.2124 29.2662C41.2383 29.1538 41.2509 29.0387 41.2499 28.9233V24.1073H43.3927C43.6886 24.1073 43.9284 23.8674 43.9284 23.5716V18.2144C43.9284 17.9186 43.6886 17.6787 43.3927 17.6787ZM40.1784 27.4126C40.1141 27.3912 40.0499 27.3751 39.9802 27.3591C39.6895 27.2951 39.3865 27.3155 39.107 27.418V24.1073H40.1784V27.4126Z" fill="white"/>
<defs>
<linearGradient id="paint0_linear" x1="30" y1="0" x2="30" y2="60" gradientUnits="userSpaceOnUse">
<stop stop-color="#00AEB9"/>
<stop offset="1" stop-color="#00B99F"/>
</linearGradient>
</defs>
</svg>
