<svg width="24" height="24" viewBox="0 0 24 24" fill="none" xmlns="http://www.w3.org/2000/svg">
<g clip-path="url(#clip0)">
<path d="M21.3373 2.66131C20.9945 2.31358 20.4362 2.31848 20.0884 2.66131L16.9539 5.79578C13.0701 4.03264 8.92675 4.46363 4.97437 7.04468C2.0309 8.96454 0.243272 11.3791 0.169807 11.4819C-0.0652784 11.8052 -0.0554832 12.2459 0.194295 12.5594C1.86928 14.6164 3.62263 16.2179 5.41516 17.3346L2.6578 20.0919C2.31496 20.4348 2.31496 20.9931 2.6578 21.3408C2.82921 21.5122 3.0545 21.6004 3.2798 21.6004C3.50509 21.6004 3.73038 21.5122 3.90179 21.3408L21.3373 3.9102C21.6802 3.56737 21.6802 3.00904 21.3373 2.66131ZM9.81812 12.9316C9.69078 12.6427 9.62711 12.3292 9.62711 12.0011C9.62711 11.3693 9.87199 10.7718 10.3226 10.3212C11.0278 9.61593 12.071 9.44941 12.933 9.81673L9.81812 12.9316ZM14.2358 8.51886C12.6342 7.49036 10.4744 7.67647 9.07858 9.07229C8.29496 9.85591 7.86886 10.8942 7.86886 11.9962C7.86886 12.7994 8.09905 13.5683 8.52515 14.2295L6.70813 16.0465C5.1164 15.1257 3.54916 13.7642 2.02601 11.9864C2.67739 11.2223 4.05362 9.74816 5.9392 8.51886C9.20102 6.39329 12.4481 5.93292 15.612 7.14263L14.2358 8.51886Z" fill="#B0B1A9"/>
<path d="M23.8057 11.4425C22.596 9.95357 21.3422 8.69978 20.0688 7.70557C19.6819 7.40681 19.1284 7.47538 18.8248 7.85739C18.526 8.23941 18.5946 8.79284 18.9766 9.09649C19.9855 9.88501 20.9944 10.8645 21.974 12.0106C21.396 12.6864 20.2696 13.9011 18.7415 15.0128C15.7981 17.1531 12.8252 17.9269 9.91113 17.3098C9.43606 17.207 8.96589 17.5155 8.86794 17.9906C8.76509 18.4656 9.07364 18.9358 9.5487 19.0338C10.3078 19.1954 11.0719 19.2737 11.8408 19.2737C12.9966 19.2737 14.1623 19.0925 15.323 18.7301C16.8462 18.255 18.3595 17.4714 19.8239 16.4037C22.2923 14.5965 23.7665 12.6032 23.8302 12.5199C24.0652 12.1967 24.0555 11.7559 23.8057 11.4425Z" fill="#B0B1A9"/>
</g>
<defs>
<clipPath id="clip0">
<rect width="24" height="24" fill="white"/>
</clipPath>
</defs>
</svg>
