<svg width="24" height="24" viewBox="0 0 24 24" fill="none" xmlns="http://www.w3.org/2000/svg">
<path d="M21.6866 3.25H2.31387C1.03661 3.25 0 4.2861 0 5.56387V18.4393C0 19.7171 1.03661 20.7532 2.31387 20.7532H21.6866C22.9644 20.7532 24.0005 19.7171 24.0005 18.4393V5.56387C24.0005 4.2861 22.9644 3.25 21.6866 3.25ZM2.30667 14.9618C2.30667 14.9345 2.31284 14.9083 2.31387 14.8831C2.35089 13.756 3.16024 12.8361 4.43287 12.3363C3.98912 11.8088 3.72174 11.129 3.72174 10.3875C3.72174 9.54271 4.06933 8.77861 4.62775 8.22791C4.75835 8.09936 4.89975 7.98161 5.05144 7.87775C5.53838 7.54558 6.12559 7.35224 6.75754 7.35224C7.38948 7.35224 7.97618 7.5466 8.4626 7.87775C9.26526 8.42433 9.79282 9.34525 9.79282 10.3875C9.79282 11.1285 9.52493 11.8082 9.08169 12.3358C10.3029 12.815 11.1025 13.6794 11.1971 14.7463C11.2069 14.8173 11.2099 14.8898 11.2099 14.9623C11.2099 15.4158 11.0289 15.8246 10.7384 16.127C10.4325 16.4442 10.0047 16.6442 9.52853 16.6442C9.5275 16.6442 9.52647 16.6442 9.52441 16.6442H3.98706C3.08208 16.6442 2.34987 15.9275 2.31284 15.0333C2.31284 15.0086 2.30667 14.9865 2.30667 14.9618ZM21.6866 15.6714C21.6506 16.2061 21.209 16.6298 20.6655 16.6298H14.4951C14.1203 16.6298 13.7953 16.4262 13.6143 16.1254C13.5228 15.9717 13.4667 15.7932 13.4667 15.6015C13.4667 15.0338 13.9275 14.5731 14.4951 14.5731H19.3728H20.6655C21.2105 14.5731 21.6506 14.9968 21.6866 15.531C21.6882 15.5552 21.6938 15.5773 21.6938 15.6015C21.6938 15.6256 21.6882 15.6477 21.6866 15.6714ZM21.6866 12.0715C21.6506 12.6058 21.209 13.0295 20.6655 13.0295H19.3728H14.4951C13.9275 13.0295 13.4667 12.5687 13.4667 12.0011C13.4667 11.4334 13.9275 10.9727 14.4951 10.9727H19.3728H20.6655C21.2105 10.9727 21.6506 11.3964 21.6866 11.9311C21.6882 11.9548 21.6938 11.9769 21.6938 12.0006C21.6933 12.0252 21.6882 12.0473 21.6866 12.0715ZM21.6866 8.47164C21.6506 9.0064 21.209 9.4301 20.6655 9.4301H19.3728H14.4951C13.9275 9.4301 13.4667 8.96938 13.4667 8.40171C13.4667 8.2094 13.5228 8.03149 13.6143 7.87775C13.7953 7.57643 14.1193 7.37332 14.4951 7.37332H20.6655C21.2105 7.37332 21.6506 7.79702 21.6866 8.33178C21.6882 8.35543 21.6938 8.37754 21.6938 8.40171C21.6938 8.42588 21.6882 8.44799 21.6866 8.47164Z" fill="#00B99F"/>
</svg>
