<svg width="24" height="24" viewBox="0 0 24 24" fill="none" xmlns="http://www.w3.org/2000/svg">
<path d="M5.39062 5.48438C2.41823 5.48438 0 7.90261 0 10.875V17.6719H10.7812V10.875C10.7812 7.90261 8.36302 5.48438 5.39062 5.48438Z" fill="#00B99F"/>
<path d="M15 11.2772V5.625H13.5938V11.2772C12.7754 11.5674 12.1875 12.349 12.1875 13.2656C12.1875 14.4287 13.1338 15.375 14.2969 15.375C15.46 15.375 16.4062 14.4287 16.4062 13.2656C16.4062 12.349 15.8184 11.5674 15 11.2772ZM14.2969 13.9688C13.9092 13.9688 13.5938 13.6533 13.5938 13.2656C13.5938 12.8779 13.9092 12.5625 14.2969 12.5625C14.6846 12.5625 15 12.8779 15 13.2656C15 13.6533 14.6846 13.9688 14.2969 13.9688Z" fill="#00B99F"/>
<path d="M18.6094 5.48438H16.4062V10.4546C17.2744 11.1075 17.8125 12.1427 17.8125 13.2656C17.8125 15.2041 16.2354 16.7812 14.2969 16.7812C13.506 16.7812 12.7755 16.5186 12.1875 16.0762V17.6719H24V10.875C24 7.90261 21.5818 5.48438 18.6094 5.48438Z" fill="#00B99F"/>
<path d="M9.52539 5.48438C11.0412 6.64978 12.0538 8.43872 12.1752 10.4641C12.1793 10.461 12.1834 10.4577 12.1875 10.4545V5.48438H9.52539Z" fill="#00B99F"/>
<path d="M17.1094 0H13.5938V4.21875H17.1094C18.2725 4.21875 19.2188 3.27248 19.2188 2.10938C19.2188 0.946266 18.2725 0 17.1094 0Z" fill="#00B99F"/>
<path d="M16.4531 19.0781H12.7031V24H16.4531V19.0781Z" fill="#00B99F"/>
<path d="M11.2969 19.0781H8.48438V24H11.2969V19.0781Z" fill="#00B99F"/>
</svg>
