<svg width="24" height="24" viewBox="0 0 24 24" fill="none" xmlns="http://www.w3.org/2000/svg">
<g clip-path="url(#clip0)">
<path d="M23.8057 11.4436C20.1807 6.98582 16.2667 4.72266 12.1617 4.72266C10.5353 4.72266 8.88938 5.08515 7.26304 5.79545C5.9845 6.3588 4.71576 7.13768 3.496 8.1125C1.43369 9.76334 0.218828 11.4093 0.169842 11.4779C-0.0652918 11.8012 -0.0554945 12.242 0.194335 12.5555C3.81441 17.0182 7.73331 19.2765 11.8384 19.2765C13.4647 19.2765 15.1106 18.914 16.737 18.2037C18.0155 17.6403 19.2843 16.8614 20.504 15.8866C22.5663 14.2358 23.7812 12.5898 23.8302 12.5213C24.0653 12.1979 24.0555 11.7571 23.8057 11.4436ZM19.3626 14.5395C17.6579 15.8964 14.9735 17.513 11.8384 17.513C8.45341 17.513 5.15174 15.6564 2.01662 11.9922C2.51138 11.4093 3.41763 10.4344 4.63248 9.46452C6.3372 8.1076 9.02165 6.49106 12.1568 6.49106C15.5417 6.49106 18.8434 8.34763 21.9785 12.0118C21.4837 12.5947 20.5775 13.5745 19.3626 14.5395Z" fill="#1763EA"/>
<path d="M15.248 11.1199C14.763 11.1199 14.3662 11.5167 14.3662 12.0016C14.3662 13.3096 13.3032 14.3726 11.9953 14.3726C10.6873 14.3726 9.62435 13.3096 9.62435 12.0016C9.62435 10.6937 10.6873 9.63069 11.9953 9.63069C12.4802 9.63069 12.877 9.2339 12.877 8.74894C12.877 8.26398 12.4802 7.86719 11.9953 7.86719C9.71252 7.86719 7.86084 9.72376 7.86084 12.0016C7.86084 14.2795 9.71252 16.1361 11.9953 16.1361C14.278 16.1361 16.1297 14.2795 16.1297 12.0016C16.1297 11.5167 15.7329 11.1199 15.248 11.1199Z" fill="#1763EA"/>
</g>
<defs>
<clipPath id="clip0">
<rect width="24" height="24" fill="white"/>
</clipPath>
</defs>
</svg>
