<svg width="60" height="60" viewBox="0 0 60 60" fill="none" xmlns="http://www.w3.org/2000/svg">
<rect width="60" height="60" rx="5" fill="url(#paint0_linear)"/>
<g clip-path="url(#clip0)">
<path d="M29.1211 34.35V36.3142C28.1003 36.6783 27.3633 37.6447 27.3633 38.7891V42.3633C27.3633 43.8172 28.5461 45 30 45C31.4539 45 32.6367 43.8172 32.6367 42.3633V38.7891C32.6367 37.6447 31.8997 36.6783 30.8789 36.3142V34.35C35.799 33.9039 39.668 29.7608 39.668 24.7266C39.668 19.3956 35.3309 15 30 15C24.6691 15 20.332 19.3956 20.332 24.7266C20.332 29.7609 24.201 33.9039 29.1211 34.35ZM26.7419 24.1052C27.0852 23.7619 27.6414 23.7619 27.9847 24.1052L29.1211 25.2415L32.0153 22.3473C32.3586 22.004 32.9149 22.004 33.2582 22.3473C33.6015 22.6906 33.6015 23.2468 33.2582 23.5901L29.7425 27.1058C29.5709 27.2774 29.346 27.3633 29.1212 27.3633C28.8963 27.3633 28.6714 27.2774 28.4998 27.1058L26.742 25.3479C26.3985 25.0046 26.3985 24.4485 26.7419 24.1052Z" fill="white"/>
</g>
<defs>
<linearGradient id="paint0_linear" x1="30" y1="0" x2="30" y2="60" gradientUnits="userSpaceOnUse">
<stop stop-color="#00AEB9"/>
<stop offset="1" stop-color="#00B99F"/>
</linearGradient>
<clipPath id="clip0">
<rect width="30" height="30" fill="white" transform="translate(15 15)"/>
</clipPath>
</defs>
</svg>
