<svg width="60" height="60" viewBox="0 0 60 60" fill="none" xmlns="http://www.w3.org/2000/svg">
<rect width="60" height="60" rx="5" fill="url(#paint0_linear)"/>
<path d="M30 15C24.7286 15 20.332 19.2463 20.332 24.668C20.332 26.7306 20.9518 28.5698 22.1413 30.2933L29.2601 41.4015C29.6055 41.9415 30.3952 41.9405 30.7399 41.4015L37.8895 30.2555C39.0534 28.6102 39.668 26.6781 39.668 24.668C39.668 19.3371 35.3309 15 30 15ZM30 29.0625C27.577 29.0625 25.6055 27.091 25.6055 24.668C25.6055 22.2449 27.577 20.2734 30 20.2734C32.423 20.2734 34.3945 22.2449 34.3945 24.668C34.3945 27.091 32.423 29.0625 30 29.0625Z" fill="white"/>
<path d="M36.8709 35.1968L32.4453 42.1159C31.2997 43.902 28.6939 43.8961 27.5538 42.1176L23.121 35.1986C19.2207 36.1004 16.8164 37.7523 16.8164 39.7264C16.8164 43.1519 23.6091 44.9998 30 44.9998C36.3909 44.9998 43.1836 43.1519 43.1836 39.7264C43.1836 37.7509 40.7759 36.0981 36.8709 35.1968Z" fill="white"/>
<defs>
<linearGradient id="paint0_linear" x1="30" y1="0" x2="30" y2="60" gradientUnits="userSpaceOnUse">
<stop stop-color="#00AEB9"/>
<stop offset="1" stop-color="#00B99F"/>
</linearGradient>
</defs>
</svg>
