<svg width="24" height="24" viewBox="0 0 24 24" fill="none" xmlns="http://www.w3.org/2000/svg">
<path fill-rule="evenodd" clip-rule="evenodd" d="M5.94955 0H18.048C19.0122 0 19.7947 0.78321 19.7954 1.74897V2.90002H4.20361V1.74897C4.20361 0.78321 4.98379 0 5.94955 0ZM4.20361 19.9V22.2533C4.20361 23.216 4.98379 24 5.94955 24H18.048C19.0122 24 19.7954 23.2168 19.7954 22.2533V19.9H4.20361ZM9.65821 1.77472H14.34L14.3408 1.26419H9.65821V1.77472ZM15.8959 1.98832C16.142 1.98832 16.3435 1.78835 16.3435 1.54142C16.3435 1.29449 16.1428 1.09377 15.8959 1.09452C15.6489 1.09452 15.4482 1.29525 15.4482 1.54142C15.4482 1.7876 15.6489 1.98832 15.8959 1.98832ZM9.86651 22.1367H14.1302V20.8247H9.86651V22.1367Z" fill="#00B99F"/>
<rect x="4.19995" y="3.80078" width="15.6" height="15" fill="#00B99F"/>
</svg>
