<svg width="24" height="24" viewBox="0 0 24 24" fill="none" xmlns="http://www.w3.org/2000/svg">
<g clip-path="url(#clip0)">
<path d="M11.829 11.5609C13.4172 11.5609 14.7925 10.9912 15.9162 9.86733C17.0399 8.74362 17.6096 7.36868 17.6096 5.78025C17.6096 4.19237 17.0399 2.81725 15.916 1.69317C14.7921 0.569639 13.417 0 11.829 0C10.2405 0 8.86559 0.569639 7.74188 1.69335C6.61816 2.81707 6.04834 4.19218 6.04834 5.78025C6.04834 7.36868 6.61816 8.7438 7.74206 9.86751C8.86596 10.991 10.2411 11.5609 11.829 11.5609Z" fill="#00B99F"/>
<path d="M21.9435 18.4556C21.9111 17.988 21.8455 17.4778 21.749 16.9391C21.6516 16.3964 21.5262 15.8833 21.376 15.4144C21.2209 14.9297 21.01 14.4511 20.7493 13.9924C20.4786 13.5163 20.1608 13.1018 19.8041 12.7607C19.4311 12.4038 18.9744 12.1169 18.4463 11.9076C17.9201 11.6994 17.3369 11.5939 16.7131 11.5939C16.4681 11.5939 16.2311 11.6945 15.7736 11.9924C15.492 12.176 15.1625 12.3884 14.7949 12.6233C14.4805 12.8237 14.0546 13.0113 13.5285 13.1813C13.0153 13.3473 12.4942 13.4316 11.9798 13.4316C11.4655 13.4316 10.9445 13.3473 10.4308 13.1813C9.90524 13.0115 9.47934 12.8238 9.16532 12.6235C8.80112 12.3908 8.47153 12.1784 8.18571 11.9922C7.72868 11.6943 7.49156 11.5938 7.24656 11.5938C6.62254 11.5938 6.03954 11.6994 5.51347 11.9078C4.98577 12.1167 4.52892 12.4036 4.15557 12.7609C3.79907 13.1022 3.48101 13.5165 3.21075 13.9924C2.95019 14.4511 2.73925 14.9296 2.58398 15.4146C2.43402 15.8835 2.30859 16.3964 2.21118 16.9391C2.11468 17.4771 2.04913 17.9874 2.01672 18.4561C1.98486 18.9154 1.96875 19.392 1.96875 19.8734C1.96875 21.1262 2.367 22.1404 3.15234 22.8884C3.92797 23.6265 4.95427 24.0009 6.20231 24.0009H17.7584C19.0065 24.0009 20.0324 23.6267 20.8082 22.8884C21.5937 22.1409 21.992 21.1265 21.992 19.8732C21.9918 19.3896 21.9755 18.9126 21.9435 18.4556Z" fill="#00B99F"/>
</g>
<defs>
<clipPath id="clip0">
<rect width="23.9999" height="24" fill="white"/>
</clipPath>
</defs>
</svg>
